<?xml version="1.0" encoding="UTF-8" standalone="no"?>
<!-- Created with Inkscape (http://www.inkscape.org/) -->

<svg
   xmlns:dc="http://purl.org/dc/elements/1.1/"
   xmlns:cc="http://creativecommons.org/ns#"
   xmlns:rdf="http://www.w3.org/1999/02/22-rdf-syntax-ns#"
   xmlns:svg="http://www.w3.org/2000/svg"
   xmlns="http://www.w3.org/2000/svg"
   xmlns:sodipodi="http://sodipodi.sourceforge.net/DTD/sodipodi-0.dtd"
   xmlns:inkscape="http://www.inkscape.org/namespaces/inkscape"
   width="100"
   height="100"
   id="svg4776"
   version="1.1"
   inkscape:version="0.48.5 r10040"
   sodipodi:docname="mana-15.svg">
  <defs
     id="defs4778" />
  <sodipodi:namedview
     id="base"
     pagecolor="#ffffff"
     bordercolor="#666666"
     borderopacity="1.0"
     inkscape:pageopacity="0.0"
     inkscape:pageshadow="2"
     inkscape:zoom="3.959798"
     inkscape:cx="54.627078"
     inkscape:cy="63.23211"
     inkscape:document-units="px"
     inkscape:current-layer="layer1"
     showgrid="false"
     inkscape:window-width="1920"
     inkscape:window-height="1137"
     inkscape:window-x="1912"
     inkscape:window-y="-8"
     inkscape:window-maximized="1"
     fit-margin-top="0"
     fit-margin-left="0"
     fit-margin-right="0"
     fit-margin-bottom="0"
     gridtolerance="10"
     objecttolerance="20"
     guidetolerance="10000">
    <sodipodi:guide
       position="0,0"
       orientation="0,100"
       id="guide4839" />
    <sodipodi:guide
       position="100,0"
       orientation="-100,0"
       id="guide4841" />
    <sodipodi:guide
       position="100,100"
       orientation="0,-100"
       id="guide4843" />
    <sodipodi:guide
       position="0,100"
       orientation="100,0"
       id="guide4845" />
  </sodipodi:namedview>
  <metadata
     id="metadata4781">
    <rdf:RDF>
      <cc:Work
         rdf:about="">
        <dc:format>image/svg+xml</dc:format>
        <dc:type
           rdf:resource="http://purl.org/dc/dcmitype/StillImage" />
        <dc:title></dc:title>
      </cc:Work>
    </rdf:RDF>
  </metadata>
  <g
     inkscape:label="Layer 1"
     inkscape:groupmode="layer"
     id="layer1"
     transform="translate(-270,-119.50504)">
    <g
       transform="translate(585,224.50704)"
       id="g4335">
      <circle
         style="fill:#cac5c0"
         sodipodi:ry="50"
         sodipodi:rx="50"
         sodipodi:cy="-55.001999"
         sodipodi:cx="-265"
         d="m -215,-55.001999 c 0,27.614238 -22.38576,50.0000001 -50,50.0000001 -27.61424,0 -50,-22.3857621 -50,-50.0000001 0,-27.614237 22.38576,-50.000001 50,-50.000001 27.61424,0 50,22.385764 50,50.000001 z"
         cx="-265"
         cy="-55.001999"
         r="50"
         id="circle4337" />
    </g>
    <path
       style="fill:#0d0f0f"
       inkscape:connector-curvature="0"
       d="m 304.309,137.82904 v 50.838 c 0,6.047 2.516,9.07 7.537,9.07 h 1.279 v 3.447 h -27.082 v -3.447 h 1.789 c 5.109,0 7.668,-3.023 7.668,-9.07 v -33.344 c 0,-6.127 -2.174,-9.193 -6.52,-9.193 h -2.682 v -3.451 h 1.023 c 5.281,0 10.049,-1.617 14.305,-4.85 h 2.683 z m 20.058,27.459 c 4.684,-4.422 9.408,-6.643 14.18,-6.643 5.109,0 9.236,2.049 12.391,6.135 2.895,3.746 4.34,8.305 4.34,13.668 0,5.791 -1.703,10.859 -5.109,15.199 -3.746,4.855 -8.43,7.281 -14.049,7.281 -6.643,0 -12.006,-2.895 -16.098,-8.684 -3.576,-5.109 -5.365,-11.156 -5.365,-18.141 0,-7.49 2.043,-14.371 6.135,-20.631 4.084,-6.258 9.58,-10.707 16.477,-13.348 3.83,-1.451 7.922,-2.174 12.262,-2.174 v 3.322 c -9.193,0.428 -16.051,4.092 -20.563,10.988 -2.304,3.579 -3.837,7.919 -4.601,13.028 z m -0.64,6.264 c -0.082,1.273 -0.129,2.553 -0.129,3.83 0,4.938 0.852,9.496 2.559,13.672 2.213,5.445 5.445,8.17 9.707,8.17 3.66,0 6.43,-1.871 8.301,-5.619 1.363,-2.895 2.043,-6.43 2.043,-10.604 0,-4.34 -0.633,-8.088 -1.912,-11.236 -1.877,-4.262 -4.729,-6.389 -8.561,-6.389 -4.684,0 -8.686,2.725 -12.008,8.176 z"
       id="path4339" />
  </g>
</svg>
