<?xml version="1.0" encoding="UTF-8" standalone="no"?>
<!-- Created with Inkscape (http://www.inkscape.org/) -->

<svg
   xmlns:dc="http://purl.org/dc/elements/1.1/"
   xmlns:cc="http://creativecommons.org/ns#"
   xmlns:rdf="http://www.w3.org/1999/02/22-rdf-syntax-ns#"
   xmlns:svg="http://www.w3.org/2000/svg"
   xmlns="http://www.w3.org/2000/svg"
   xmlns:sodipodi="http://sodipodi.sourceforge.net/DTD/sodipodi-0.dtd"
   xmlns:inkscape="http://www.inkscape.org/namespaces/inkscape"
   width="100"
   height="100"
   id="svg4776"
   version="1.1"
   inkscape:version="0.48.5 r10040"
   sodipodi:docname="mana-9.svg">
  <defs
     id="defs4778" />
  <sodipodi:namedview
     id="base"
     pagecolor="#ffffff"
     bordercolor="#666666"
     borderopacity="1.0"
     inkscape:pageopacity="0.0"
     inkscape:pageshadow="2"
     inkscape:zoom="3.959798"
     inkscape:cx="54.627078"
     inkscape:cy="63.23211"
     inkscape:document-units="px"
     inkscape:current-layer="layer1"
     showgrid="false"
     inkscape:window-width="1920"
     inkscape:window-height="1137"
     inkscape:window-x="1912"
     inkscape:window-y="-8"
     inkscape:window-maximized="1"
     fit-margin-top="0"
     fit-margin-left="0"
     fit-margin-right="0"
     fit-margin-bottom="0"
     gridtolerance="10"
     objecttolerance="20"
     guidetolerance="10000">
    <sodipodi:guide
       position="0,0"
       orientation="0,100"
       id="guide4839" />
    <sodipodi:guide
       position="100,0"
       orientation="-100,0"
       id="guide4841" />
    <sodipodi:guide
       position="100,100"
       orientation="0,-100"
       id="guide4843" />
    <sodipodi:guide
       position="0,100"
       orientation="100,0"
       id="guide4845" />
  </sodipodi:namedview>
  <metadata
     id="metadata4781">
    <rdf:RDF>
      <cc:Work
         rdf:about="">
        <dc:format>image/svg+xml</dc:format>
        <dc:type
           rdf:resource="http://purl.org/dc/dcmitype/StillImage" />
        <dc:title></dc:title>
      </cc:Work>
    </rdf:RDF>
  </metadata>
  <g
     inkscape:label="Layer 1"
     inkscape:groupmode="layer"
     id="layer1"
     transform="translate(-270,-119.50504)">
    <g
       transform="translate(1215,224.50704)"
       id="g4371">
      <circle
         style="fill:#cac5c0"
         sodipodi:ry="50"
         sodipodi:rx="50"
         sodipodi:cy="-55.001999"
         sodipodi:cx="-895"
         d="m -845,-55.001999 c 0,27.614238 -22.38576,50.0000001 -50,50.0000001 -27.61424,0 -50,-22.3857621 -50,-50.0000001 0,-27.614237 22.38576,-50.000001 50,-50.000001 27.61424,0 50,22.385764 50,50.000001 z"
         cx="-895"
         cy="-55.001999"
         r="50"
         id="circle4373" />
    </g>
    <path
       style="fill:#0d0f0f"
       inkscape:connector-curvature="0"
       d="m 305.30604,138.14004 v 50.439 c 0,5.998 2.567,8.998 7.693,8.998 h 1.305 v 3.42 h -26.866 v -3.42 h 1.727 c 4.931,0 7.4,-3 7.4,-8.998 v -33.08 c 0,-6.08 -2.155,-9.123 -6.467,-9.123 h -2.66 v -3.424 h 1.016 c 5.238,0 9.969,-1.604 14.191,-4.813 l 2.661,0.001 0,0 z m 9.76,33.328 c 0,-7.857 1.646,-15.082 4.94,-21.668 4.142,-8.193 9.805,-12.293 16.982,-12.293 6.931,0 12.422,3.508 16.476,10.516 3.296,5.748 4.945,12.381 4.945,19.898 0,7.859 -1.648,15.039 -4.945,21.545 -4.141,8.029 -9.757,12.041 -16.853,12.041 -6.842,0 -12.293,-3.465 -16.352,-10.395 -3.464,-5.828 -5.193,-12.376 -5.193,-19.644 z m 9.122,-3.676 c 0,6.68 0.718,12.676 2.156,17.996 2.197,8.195 5.785,12.295 10.771,12.295 8.111,0 12.165,-8.447 12.165,-25.346 0,-20.869 -4.394,-31.301 -13.182,-31.301 -7.941,0 -11.912,8.105 -11.912,24.328 l 0.002,2.028 0,0 z"
       id="path4375" />
  </g>
</svg>
