<?xml version="1.0" encoding="UTF-8" standalone="no"?>
<!-- Created with Inkscape (http://www.inkscape.org/) -->

<svg
   xmlns:dc="http://purl.org/dc/elements/1.1/"
   xmlns:cc="http://creativecommons.org/ns#"
   xmlns:rdf="http://www.w3.org/1999/02/22-rdf-syntax-ns#"
   xmlns:svg="http://www.w3.org/2000/svg"
   xmlns="http://www.w3.org/2000/svg"
   xmlns:sodipodi="http://sodipodi.sourceforge.net/DTD/sodipodi-0.dtd"
   xmlns:inkscape="http://www.inkscape.org/namespaces/inkscape"
   width="100"
   height="100"
   id="svg4776"
   version="1.1"
   inkscape:version="0.48.5 r10040"
   sodipodi:docname="mana-11.svg">
  <defs
     id="defs4778" />
  <sodipodi:namedview
     id="base"
     pagecolor="#ffffff"
     bordercolor="#666666"
     borderopacity="1.0"
     inkscape:pageopacity="0.0"
     inkscape:pageshadow="2"
     inkscape:zoom="3.959798"
     inkscape:cx="54.627078"
     inkscape:cy="63.23211"
     inkscape:document-units="px"
     inkscape:current-layer="layer1"
     showgrid="false"
     inkscape:window-width="1920"
     inkscape:window-height="1137"
     inkscape:window-x="1912"
     inkscape:window-y="-8"
     inkscape:window-maximized="1"
     fit-margin-top="0"
     fit-margin-left="0"
     fit-margin-right="0"
     fit-margin-bottom="0"
     gridtolerance="10"
     objecttolerance="20"
     guidetolerance="10000">
    <sodipodi:guide
       position="0,0"
       orientation="0,100"
       id="guide4839" />
    <sodipodi:guide
       position="100,0"
       orientation="-100,0"
       id="guide4841" />
    <sodipodi:guide
       position="100,100"
       orientation="0,-100"
       id="guide4843" />
    <sodipodi:guide
       position="0,100"
       orientation="100,0"
       id="guide4845" />
  </sodipodi:namedview>
  <metadata
     id="metadata4781">
    <rdf:RDF>
      <cc:Work
         rdf:about="">
        <dc:format>image/svg+xml</dc:format>
        <dc:type
           rdf:resource="http://purl.org/dc/dcmitype/StillImage" />
        <dc:title></dc:title>
      </cc:Work>
    </rdf:RDF>
  </metadata>
  <g
     inkscape:label="Layer 1"
     inkscape:groupmode="layer"
     id="layer1"
     transform="translate(-270,-119.50504)">
    <g
       transform="translate(1005,224.50704)"
       id="g4359">
      <circle
         style="fill:#cac5c0"
         sodipodi:ry="50"
         sodipodi:rx="50"
         sodipodi:cy="-55.001999"
         sodipodi:cx="-685"
         d="m -635,-55.001999 c 0,27.614238 -22.38576,50.0000001 -50,50.0000001 -27.61424,0 -50,-22.3857621 -50,-50.0000001 0,-27.614237 22.38576,-50.000001 50,-50.000001 27.61424,0 50,22.385764 50,50.000001 z"
         cx="-685"
         cy="-55.001999"
         r="50"
         id="circle4361" />
    </g>
    <path
       style="fill:#0d0f0f"
       inkscape:connector-curvature="0"
       d="m 305.63001,138.72204 v 49.18 c 0,5.875 2.428,8.816 7.277,8.816 h 1.278 v 3.445 h -26.185 v -3.445 h 1.533 c 4.938,0 7.406,-2.941 7.406,-8.816 v -32.32 c 0,-5.955 -2.043,-8.939 -6.128,-8.939 h -2.682 v -3.322 h 1.019 c 5.109,0 9.709,-1.531 13.795,-4.598 l 2.687,-0.001 0,0 z m 50.965,46.367 -4.471,15.203 h -37.429 v -3.32 c 1.793,-2.043 5.749,-6.133 11.882,-12.266 3.659,-3.66 7.324,-7.578 10.988,-11.748 1.788,-2.049 3.191,-3.748 4.215,-5.115 2.126,-3.232 3.191,-6.465 3.191,-9.703 0,-3.238 -0.981,-6.092 -2.938,-8.561 -1.959,-2.471 -4.559,-3.705 -7.791,-3.705 -6.731,0 -12.012,4.598 -15.843,13.799 l -3.321,-1.279 c 4.601,-12.775 11.752,-19.164 21.461,-19.164 4.767,0 8.857,1.621 12.262,4.855 3.404,3.238 5.109,7.281 5.109,12.137 0,6.215 -3.534,12.262 -10.598,18.141 l -7.282,5.873 c -4.688,3.92 -8.561,7.625 -11.628,11.111 -0.254,0.262 -0.681,0.729 -1.273,1.41 h 19.544 c 2.979,0 5.192,-0.557 6.643,-1.664 1.445,-1.102 2.766,-3.107 3.956,-6.004 h 3.323 z"
       id="path4363" />
  </g>
</svg>
