<?xml version="1.0" encoding="UTF-8" standalone="no"?>
<!-- Created with Inkscape (http://www.inkscape.org/) -->

<svg
   xmlns:dc="http://purl.org/dc/elements/1.1/"
   xmlns:cc="http://creativecommons.org/ns#"
   xmlns:rdf="http://www.w3.org/1999/02/22-rdf-syntax-ns#"
   xmlns:svg="http://www.w3.org/2000/svg"
   xmlns="http://www.w3.org/2000/svg"
   xmlns:sodipodi="http://sodipodi.sourceforge.net/DTD/sodipodi-0.dtd"
   xmlns:inkscape="http://www.inkscape.org/namespaces/inkscape"
   width="100"
   height="100"
   id="svg4776"
   version="1.1"
   inkscape:version="0.48.5 r10040"
   sodipodi:docname="mana-pw.svg">
  <defs
     id="defs4778" />
  <sodipodi:namedview
     id="base"
     pagecolor="#ffffff"
     bordercolor="#666666"
     borderopacity="1.0"
     inkscape:pageopacity="0.0"
     inkscape:pageshadow="2"
     inkscape:zoom="3.959798"
     inkscape:cx="15.231129"
     inkscape:cy="63.23211"
     inkscape:document-units="px"
     inkscape:current-layer="layer1"
     showgrid="false"
     inkscape:window-width="1920"
     inkscape:window-height="1137"
     inkscape:window-x="1912"
     inkscape:window-y="-8"
     inkscape:window-maximized="1"
     fit-margin-top="0"
     fit-margin-left="0"
     fit-margin-right="0"
     fit-margin-bottom="0"
     gridtolerance="10"
     objecttolerance="20"
     guidetolerance="1">
    <sodipodi:guide
       position="0,0"
       orientation="0,100"
       id="guide4839" />
    <sodipodi:guide
       position="100,0"
       orientation="-100,0"
       id="guide4841" />
    <sodipodi:guide
       position="100,100"
       orientation="0,-100"
       id="guide4843" />
    <sodipodi:guide
       position="0,100"
       orientation="100,0"
       id="guide4845" />
  </sodipodi:namedview>
  <metadata
     id="metadata4781">
    <rdf:RDF>
      <cc:Work
         rdf:about="">
        <dc:format>image/svg+xml</dc:format>
        <dc:type
           rdf:resource="http://purl.org/dc/dcmitype/StillImage" />
        <dc:title></dc:title>
      </cc:Work>
    </rdf:RDF>
  </metadata>
  <g
     inkscape:label="Layer 1"
     inkscape:groupmode="layer"
     id="layer1"
     transform="translate(-270,-119.50504)">
    <g
       transform="translate(585,14.50454)"
       id="g4481">
      <path
         style="fill:#cac5c0;fill-opacity:1"
         inkscape:connector-curvature="0"
         d="m -229.651,119.637 c 9.053,9.051 14.651,21.551 14.651,35.36 0,27.616 -22.387,50.003 -50,50.003 -13.807,0 -26.305,-5.596 -35.354,-14.646"
         id="path4483" />
      <path
         style="fill:#cac5c0;fill-opacity:1"
         inkscape:connector-curvature="0"
         d="m -300.354,190.354 c -9.05,-9.047 -14.646,-21.549 -14.646,-35.356 0,-27.613 22.387,-49.997 50,-49.997 13.802,0 26.301,5.594 35.349,14.637"
         id="path4485" />
    </g>
    <path
       style="fill:#0d0f0f"
       inkscape:connector-curvature="0"
       d="m 358,192.61554 c -2.436,-2.264 -4.054,-3.491 -4.848,-3.682 -0.576,-0.138 -1.135,0.198 -1.672,1.006 -0.537,0.808 -1.291,1.092 -2.268,0.858 -0.396,-0.095 -1.175,-0.435 -2.334,-1.017 -0.938,0.885 -1.441,1.471 -1.511,1.758 -0.095,0.398 0.089,0.938 0.551,1.621 0.46,0.685 0.894,1.072 1.301,1.171 0.257,0.062 0.621,0.091 1.09,0.089 0.468,-0.001 0.777,0.016 0.927,0.051 0.443,0.104 0.469,0.971 0.078,2.598 -0.37,1.552 -1.302,3.852 -2.793,6.892 -0.059,-3.909 -0.61,-5.989 -1.656,-6.239 -0.145,-0.035 -0.469,0.004 -0.972,0.111 -0.505,0.107 -0.864,0.137 -1.08,0.085 -1.048,-0.251 -1.758,-1.433 -2.131,-3.546 -1.723,-0.145 -2.757,0.506 -3.103,1.949 -0.174,0.726 0.023,1.383 0.589,1.976 0.563,0.592 0.823,0.979 0.782,1.16 -0.233,0.978 -2.021,2.133 -5.355,3.473 -1.776,0.722 -3.007,1.228 -3.688,1.522 0.659,-0.528 1.369,-1.256 2.127,-2.182 0.862,-1.057 1.371,-1.906 1.528,-2.559 0.086,-0.359 -0.209,-0.966 -0.884,-1.814 -0.676,-0.849 -0.926,-1.634 -0.753,-2.355 0.146,-0.614 0.543,-1.319 1.194,-2.12 -0.341,-0.653 -0.835,-1.06 -1.485,-1.215 -1.444,-0.347 -2.279,-0.05 -2.504,0.891 0.155,-0.651 0.038,-0.163 -0.35,1.462 -0.25,1.2 -1.296,1.58 -3.138,1.141 -1.409,-0.338 -3.696,-1.229 -6.864,-2.674 3.981,-0.039 6.118,-0.674 6.411,-1.901 -0.032,0.146 -0.003,-0.308 0.097,-1.353 0.122,-1.154 1.16,-1.977 3.108,-2.465 0.072,-1.738 -0.594,-2.777 -2.004,-3.113 -0.216,-0.053 -0.705,0.231 -1.463,0.853 -0.761,0.619 -1.393,0.87 -1.898,0.748 -0.867,-0.205 -1.763,-1.413 -2.684,-3.62 -0.427,-1.095 -1.088,-2.723 -1.983,-4.885 0.727,0.632 1.453,1.266 2.182,1.896 0.963,0.766 1.77,1.226 2.419,1.383 0.506,0.119 1.108,-0.205 1.808,-0.974 0.699,-0.768 1.446,-1.058 2.24,-0.866 0.111,0.026 0.78,0.414 2.013,1.168 0.937,-0.883 1.466,-1.576 1.588,-2.082 0.102,-0.435 -0.04,-0.994 -0.431,-1.679 -0.39,-0.687 -0.802,-1.079 -1.235,-1.184 -0.181,-0.044 -0.473,-0.058 -0.878,-0.039 -0.405,0.019 -0.698,0.005 -0.879,-0.038 -0.649,-0.155 -0.781,-1.045 -0.392,-2.671 0.102,-0.435 1.11,-2.81 3.022,-7.123 -0.166,0.53 -0.173,1.601 -0.021,3.202 0.181,1.953 0.687,3.027 1.518,3.228 0.144,0.033 0.459,-0.005 0.946,-0.118 0.485,-0.113 0.852,-0.14 1.104,-0.078 0.83,0.197 1.404,0.832 1.723,1.9 l 0.463,1.655 c 0.758,0.183 1.455,0.063 2.09,-0.357 0.636,-0.421 1.046,-1.011 1.227,-1.769 0.189,-0.795 0,-1.479 -0.568,-2.055 -0.569,-0.576 -0.829,-0.972 -0.775,-1.188 0.181,-0.758 1.68,-1.755 4.495,-2.99 2.26,-0.985 3.709,-1.536 4.349,-1.651 -2.054,1.725 -3.199,3.07 -3.432,4.047 -0.121,0.507 0.055,1.121 0.531,1.848 0.595,0.867 0.912,1.459 0.95,1.771 0.161,0.92 -0.146,2.047 -0.925,3.39 0.811,0.92 1.47,1.438 1.977,1.562 1.045,0.25 1.699,-0.168 1.958,-1.25 0.026,-0.109 0.063,-0.463 0.112,-1.063 0.046,-0.6 0.098,-0.932 0.151,-0.995 0.266,-0.472 1.319,-0.487 3.161,-0.045 1.156,0.276 3.479,1.175 6.973,2.698 -0.847,0.027 -2.116,0.066 -3.809,0.121 -1.55,0.086 -2.389,0.401 -2.519,0.942 -0.06,0.253 -0.074,0.708 -0.04,1.364 0.034,0.656 0.017,1.132 -0.053,1.421 -0.12,0.506 -0.559,0.896 -1.312,1.175 l -2.155,0.859 c 0.245,0.898 0.42,1.438 0.531,1.615 0.259,0.521 0.692,0.854 1.306,1.002 0.434,0.104 0.922,-0.18 1.465,-0.854 0.542,-0.672 1.212,-0.913 2.007,-0.722 0.975,0.232 1.861,1.398 2.657,3.499 0.445,1.176 1.143,2.967 2.096,5.37 z m -11.274,-6.019 c 0.552,-2.313 0.184,-4.52 -1.108,-6.623 -1.292,-2.103 -3.094,-3.433 -5.404,-3.986 -2.348,-0.561 -4.573,-0.205 -6.671,1.07 -2.099,1.27 -3.448,3.077 -4.046,5.416 -0.59,2.303 -0.21,4.504 1.141,6.604 1.35,2.098 3.18,3.425 5.493,3.978 2.454,0.587 4.697,0.274 6.725,-0.94 2.026,-1.215 3.316,-3.056 3.87,-5.519 z m -0.815,-0.196 c -0.526,2.203 -1.703,3.851 -3.53,4.939 -1.826,1.09 -3.843,1.373 -6.044,0.846 -2.131,-0.51 -3.777,-1.687 -4.94,-3.531 -1.163,-1.844 -1.489,-3.83 -0.979,-5.961 0.503,-2.096 1.698,-3.709 3.592,-4.842 1.896,-1.13 3.889,-1.445 5.984,-0.943 2.094,0.5 3.727,1.693 4.898,3.576 1.171,1.887 1.512,3.858 1.019,5.916 z"
       id="path4487" />
    <path
       style="fill:#111212"
       inkscape:connector-curvature="0"
       d="m 288.6662,150.27111 c -0.0319,-2.83767 0.90288,-5.70244 2.73452,-7.92678 0.88526,-0.94043 1.61307,-2.01091 2.55063,-2.8998 2.06672,-1.97851 5.16128,-2.11022 7.65081,-3.35647 0.14479,-1.25158 0.61935,-2.50365 0.33197,-3.7664 -0.0875,-0.41993 -0.21581,-0.84585 0.016,-1.2473 0.65293,-1.45069 0.0919,-3.02565 0.2081,-4.53848 0.087,-0.79015 0.0314,-1.75707 0.81149,-2.24508 0.18168,1.64454 0.80874,3.17488 1.31688,4.73547 0.23453,1.21599 0.23453,2.48299 0.77791,3.62992 -0.34463,1.16183 0.33803,2.13996 1.07685,2.99807 1.63289,0.80709 3.57629,0.9988 4.99722,2.18238 1.01354,0.82943 2.10745,1.5564 3.24156,2.2313 0.85058,1.02695 1.79255,2.01621 2.17131,3.31342 1.52059,1.77091 1.70006,4.14767 2.5622,6.22177 0.016,3.07924 -0.63091,6.39481 -2.6701,8.86291 -1.45892,1.16182 -2.47852,2.72457 -3.93523,3.88696 -1.39837,0.80499 -2.89087,1.46663 -4.33493,2.1914 -0.94142,0.2115 -1.91311,0.31527 -2.84958,0.56237 -0.75974,3.77486 -1.27834,7.64163 -2.80333,11.22163 -0.50594,-1.46983 -0.44483,-3.04474 -0.88141,-4.52998 -0.6155,-2.19622 0.64743,-4.48216 -0.0644,-6.63806 -1.06694,-0.9202 -2.84627,-0.32271 -4.02993,-1.11243 -2.25279,-1.33973 -4.63661,-2.64438 -6.27061,-4.69405 -0.60834,-1.17828 -1.88613,-2.05868 -1.88613,-3.4722 -0.0105,-1.90367 -1.16108,-3.68623 -0.72176,-5.61057 z m 16.722,11.64484 c 1.63234,-0.38271 3.15292,-1.13581 4.5221,-2.05549 1.47324,-0.94678 2.02267,-2.7134 3.47609,-3.68198 1.36093,-1.56695 1.06639,-3.70743 1.62408,-5.56276 -0.22351,-1.29459 -0.48722,-2.57853 -0.62651,-3.88958 -0.66394,-1.03865 -1.68849,-1.86699 -1.97257,-3.11695 -0.9728,-1.34451 -2.45429,-2.27482 -3.644,-3.44037 -0.86544,-0.96271 -2.24289,-0.55702 -3.37974,-0.5942 0.11286,1.06199 0.20259,2.1601 -0.0732,3.20777 -0.13434,0.64359 -0.43548,1.27759 -0.33198,1.95197 0.22792,1.43317 -0.32977,2.8706 0.0644,4.28731 0.79443,2.96194 -0.0721,5.95199 -0.14754,8.93779 0.11286,1.32274 0.17672,2.65503 0.48888,3.95649 z m -12.37441,-5.61268 c 1.08125,0.74129 2.0023,1.65194 2.94592,2.54083 1.64005,1.09387 3.26083,2.25149 5.21303,2.7984 -0.17617,-1.34289 -0.34794,-2.72457 0.0958,-4.03934 1.08896,-2.97039 -0.24554,-6.07731 -0.47071,-9.08116 0.19875,-1.78575 0.009,-3.691 0.85774,-5.33602 0.11121,-1.23565 -0.44263,-2.42882 -0.8181,-3.5917 -1.28935,0.49647 -2.50329,1.1666 -3.57628,2.02843 -1.29596,0.93667 -3.2812,1.54413 -3.57133,3.29114 -0.1481,1.1475 -1.45011,1.84149 -1.41213,3.01553 0.0815,2.79095 -0.31766,5.70989 0.73607,8.37389 z"
       id="path4677" />
  </g>
</svg>
