<?xml version="1.0" encoding="UTF-8" standalone="no"?>
<!-- Created with Inkscape (http://www.inkscape.org/) -->

<svg
   xmlns:dc="http://purl.org/dc/elements/1.1/"
   xmlns:cc="http://creativecommons.org/ns#"
   xmlns:rdf="http://www.w3.org/1999/02/22-rdf-syntax-ns#"
   xmlns:svg="http://www.w3.org/2000/svg"
   xmlns="http://www.w3.org/2000/svg"
   xmlns:sodipodi="http://sodipodi.sourceforge.net/DTD/sodipodi-0.dtd"
   xmlns:inkscape="http://www.inkscape.org/namespaces/inkscape"
   width="100"
   height="100"
   id="svg4776"
   version="1.1"
   inkscape:version="0.48.5 r10040"
   sodipodi:docname="untap.svg">
  <defs
     id="defs4778" />
  <sodipodi:namedview
     id="base"
     pagecolor="#ffffff"
     bordercolor="#666666"
     borderopacity="1.0"
     inkscape:pageopacity="0.0"
     inkscape:pageshadow="2"
     inkscape:zoom="3.959798"
     inkscape:cx="54.627078"
     inkscape:cy="63.23211"
     inkscape:document-units="px"
     inkscape:current-layer="layer1"
     showgrid="false"
     inkscape:window-width="1920"
     inkscape:window-height="1137"
     inkscape:window-x="1912"
     inkscape:window-y="-8"
     inkscape:window-maximized="1"
     fit-margin-top="0"
     fit-margin-left="0"
     fit-margin-right="0"
     fit-margin-bottom="0"
     gridtolerance="10"
     objecttolerance="20"
     guidetolerance="10000">
    <sodipodi:guide
       position="0,0"
       orientation="0,100"
       id="guide4839" />
    <sodipodi:guide
       position="100,0"
       orientation="-100,0"
       id="guide4841" />
    <sodipodi:guide
       position="100,100"
       orientation="0,-100"
       id="guide4843" />
    <sodipodi:guide
       position="0,100"
       orientation="100,0"
       id="guide4845" />
  </sodipodi:namedview>
  <metadata
     id="metadata4781">
    <rdf:RDF>
      <cc:Work
         rdf:about="">
        <dc:format>image/svg+xml</dc:format>
        <dc:type
           rdf:resource="http://purl.org/dc/dcmitype/StillImage" />
        <dc:title></dc:title>
      </cc:Work>
    </rdf:RDF>
  </metadata>
  <g
     inkscape:label="Layer 1"
     inkscape:groupmode="layer"
     id="layer1"
     transform="translate(-270,-119.50504)">
    <g
       transform="translate(1005,-195.49295)"
       id="g4603">
      <circle
         style="fill:#cac5c0"
         sodipodi:ry="50"
         sodipodi:rx="50"
         sodipodi:cy="364.99799"
         sodipodi:cx="-685"
         d="m -635,364.99799 c 0,27.61423 -22.38576,50 -50,50 -27.61424,0 -50,-22.38577 -50,-50 0,-27.61424 22.38576,-50 50,-50 27.61424,0 50,22.38576 50,50 z"
         cx="-685"
         cy="364.99799"
         r="50"
         id="circle4605" />
    </g>
    <g
       transform="translate(1005,-195.49295)"
       id="g4607">
      <path
         style="fill:#0d0f0f"
         inkscape:connector-curvature="0"
         d="m -685.064,360.258 c 7.189,-10.043 15.201,-15.068 24.029,-15.068 5.887,0 10.594,1.803 14.092,5.393 3.508,3.594 5.264,8.334 5.264,14.225 0,5.895 -1.756,10.697 -5.264,14.42 -3.498,3.725 -8.164,5.586 -13.965,5.586 -8.658,0 -16.715,-5.021 -24.156,-15.068 -7.621,10.047 -15.592,15.068 -23.902,15.068 -5.889,0 -10.592,-1.838 -14.092,-5.518 -3.51,-3.686 -5.264,-8.471 -5.264,-14.355 0,-5.891 1.754,-10.652 5.264,-14.289 3.5,-3.635 8.203,-5.459 14.092,-5.459 8.489,-0.004 16.45,5.022 23.902,15.065 z m -3.764,4.812 c -6.756,-9.266 -13.563,-13.902 -20.402,-13.902 -4.07,0 -7.316,1.279 -9.738,3.832 -2.43,2.553 -3.635,5.867 -3.635,9.938 0,4.068 1.205,7.426 3.635,10.068 2.422,2.643 5.668,3.959 9.738,3.959 6.501,0 13.298,-4.631 20.402,-13.895 z m 7.4,0 c 7.021,9.264 13.9,13.895 20.658,13.895 3.973,0 7.164,-1.273 9.543,-3.832 2.379,-2.553 3.574,-5.867 3.574,-9.938 0,-4.238 -1.195,-7.643 -3.574,-10.195 -2.379,-2.552 -5.654,-3.832 -9.809,-3.832 -4.156,0 -8.057,1.475 -11.691,4.418 -2.252,1.818 -5.148,4.98 -8.701,9.484 z"
         id="path4609" />
    </g>
  </g>
</svg>
