<?xml version="1.0" encoding="UTF-8" standalone="no"?>
<!-- Created with Inkscape (http://www.inkscape.org/) -->

<svg
   xmlns:dc="http://purl.org/dc/elements/1.1/"
   xmlns:cc="http://creativecommons.org/ns#"
   xmlns:rdf="http://www.w3.org/1999/02/22-rdf-syntax-ns#"
   xmlns:svg="http://www.w3.org/2000/svg"
   xmlns="http://www.w3.org/2000/svg"
   xmlns:sodipodi="http://sodipodi.sourceforge.net/DTD/sodipodi-0.dtd"
   xmlns:inkscape="http://www.inkscape.org/namespaces/inkscape"
   width="100"
   height="100"
   id="svg4776"
   version="1.1"
   inkscape:version="0.48.5 r10040"
   sodipodi:docname="mana-19.svg">
  <defs
     id="defs4778" />
  <sodipodi:namedview
     id="base"
     pagecolor="#ffffff"
     bordercolor="#666666"
     borderopacity="1.0"
     inkscape:pageopacity="0.0"
     inkscape:pageshadow="2"
     inkscape:zoom="3.959798"
     inkscape:cx="54.627078"
     inkscape:cy="63.23211"
     inkscape:document-units="px"
     inkscape:current-layer="layer1"
     showgrid="false"
     inkscape:window-width="1920"
     inkscape:window-height="1137"
     inkscape:window-x="1912"
     inkscape:window-y="-8"
     inkscape:window-maximized="1"
     fit-margin-top="0"
     fit-margin-left="0"
     fit-margin-right="0"
     fit-margin-bottom="0"
     gridtolerance="10"
     objecttolerance="20"
     guidetolerance="10000">
    <sodipodi:guide
       position="0,0"
       orientation="0,100"
       id="guide4839" />
    <sodipodi:guide
       position="100,0"
       orientation="-100,0"
       id="guide4841" />
    <sodipodi:guide
       position="100,100"
       orientation="0,-100"
       id="guide4843" />
    <sodipodi:guide
       position="0,100"
       orientation="100,0"
       id="guide4845" />
  </sodipodi:namedview>
  <metadata
     id="metadata4781">
    <rdf:RDF>
      <cc:Work
         rdf:about="">
        <dc:format>image/svg+xml</dc:format>
        <dc:type
           rdf:resource="http://purl.org/dc/dcmitype/StillImage" />
        <dc:title></dc:title>
      </cc:Work>
    </rdf:RDF>
  </metadata>
  <g
     inkscape:label="Layer 1"
     inkscape:groupmode="layer"
     id="layer1"
     transform="translate(-270,-119.50504)">
    <g
       transform="translate(1215,119.50704)"
       id="g4377">
      <circle
         style="fill:#cac5c0"
         sodipodi:ry="50"
         sodipodi:rx="50"
         sodipodi:cy="49.998001"
         sodipodi:cx="-895"
         d="m -845,49.998001 c 0,27.614238 -22.38576,50 -50,50 -27.61424,0 -50,-22.385762 -50,-50 0,-27.614237 22.38576,-49.9999999 50,-49.9999999 27.61424,0 50,22.3857629 50,49.9999999 z"
         cx="-895"
         cy="49.998001"
         r="50"
         id="circle4379" />
    </g>
    <path
       style="fill:#0d0f0f"
       inkscape:connector-curvature="0"
       d="m 323.24402,182.77304 -4.471,14.945 h -36.791 v -3.068 c 1.789,-2.041 5.75,-6.086 11.883,-12.131 3.576,-3.66 7.152,-7.496 10.729,-11.498 1.871,-2.042 3.238,-3.789 4.09,-5.24 2.209,-3.066 3.316,-6.258 3.316,-9.578 0,-3.066 -0.998,-5.813 -2.998,-8.238 -2.002,-2.428 -4.539,-3.639 -7.6,-3.639 -6.643,0 -11.84,4.512 -15.588,13.541 l -3.447,-1.279 c 4.512,-12.689 11.582,-19.033 21.203,-19.033 4.771,0 8.836,1.615 12.199,4.854 3.367,3.238 5.047,7.24 5.047,12.006 0,6.051 -3.535,11.965 -10.604,17.756 l -7.152,6.004 c -4.6,3.92 -8.389,7.537 -11.367,10.857 -0.256,0.172 -0.682,0.682 -1.279,1.535 h 19.164 c 2.979,0 5.234,-0.642 6.768,-1.918 1.279,-1.021 2.557,-2.98 3.83,-5.875 h 3.068 v -0.001 z m -0.51,-13.414 c 0,-7.408 1.533,-14.264 4.6,-20.563 4.002,-7.834 9.408,-11.754 16.223,-11.754 6.555,0 11.793,3.363 15.713,10.09 3.061,5.453 4.594,11.752 4.594,18.904 0,7.495 -1.533,14.311 -4.594,20.444 -4.008,7.659 -9.373,11.491 -16.098,11.491 -6.471,0 -11.67,-3.274 -15.584,-9.836 -3.238,-5.534 -4.854,-11.792 -4.854,-18.776 z m 8.686,-3.448 c 0,6.389 0.68,12.096 2.043,17.116 2.041,7.84 5.451,11.754 10.219,11.754 7.748,0 11.627,-8.047 11.627,-24.146 0,-19.928 -4.217,-29.891 -12.646,-29.891 -7.496,0 -11.242,7.748 -11.242,23.248 l -10e-4,1.919 0,0 z"
       id="path4381" />
  </g>
</svg>
