<?xml version="1.0" encoding="UTF-8" standalone="no"?>
<!-- Created with Inkscape (http://www.inkscape.org/) -->

<svg
   xmlns:dc="http://purl.org/dc/elements/1.1/"
   xmlns:cc="http://creativecommons.org/ns#"
   xmlns:rdf="http://www.w3.org/1999/02/22-rdf-syntax-ns#"
   xmlns:svg="http://www.w3.org/2000/svg"
   xmlns="http://www.w3.org/2000/svg"
   xmlns:sodipodi="http://sodipodi.sourceforge.net/DTD/sodipodi-0.dtd"
   xmlns:inkscape="http://www.inkscape.org/namespaces/inkscape"
   width="100"
   height="100"
   id="svg4776"
   version="1.1"
   inkscape:version="0.48.5 r10040"
   sodipodi:docname="mana-ub-gray.svg">
  <defs
     id="defs4778" />
  <sodipodi:namedview
     id="base"
     pagecolor="#ffffff"
     bordercolor="#666666"
     borderopacity="1.0"
     inkscape:pageopacity="0.0"
     inkscape:pageshadow="2"
     inkscape:zoom="3.959798"
     inkscape:cx="15.231129"
     inkscape:cy="63.23211"
     inkscape:document-units="px"
     inkscape:current-layer="layer1"
     showgrid="false"
     inkscape:window-width="1920"
     inkscape:window-height="1137"
     inkscape:window-x="1912"
     inkscape:window-y="-8"
     inkscape:window-maximized="1"
     fit-margin-top="0"
     fit-margin-left="0"
     fit-margin-right="0"
     fit-margin-bottom="0"
     gridtolerance="10"
     objecttolerance="20"
     guidetolerance="10">
    <sodipodi:guide
       position="0,0"
       orientation="0,100"
       id="guide4839" />
    <sodipodi:guide
       position="100,0"
       orientation="-100,0"
       id="guide4841" />
    <sodipodi:guide
       position="100,100"
       orientation="0,-100"
       id="guide4843" />
    <sodipodi:guide
       position="0,100"
       orientation="100,0"
       id="guide4845" />
  </sodipodi:namedview>
  <metadata
     id="metadata4781">
    <rdf:RDF>
      <cc:Work
         rdf:about="">
        <dc:format>image/svg+xml</dc:format>
        <dc:type
           rdf:resource="http://purl.org/dc/dcmitype/StillImage" />
        <dc:title></dc:title>
      </cc:Work>
    </rdf:RDF>
  </metadata>
  <g
     inkscape:label="Layer 1"
     inkscape:groupmode="layer"
     id="layer1"
     transform="translate(-270,-119.50504)">
    <g
       transform="translate(1005,14.50454)"
       id="g4441">
      <path
         style="fill:#cac5c0;fill-opacity:1"
         inkscape:connector-curvature="0"
         d="m -649.651,119.637 c 9.052,9.051 14.651,21.551 14.651,35.36 0,27.616 -22.387,50.003 -50,50.003 -13.807,0 -26.305,-5.596 -35.354,-14.646"
         id="path4443" />
      <path
         style="fill:#cac5c0;fill-opacity:1"
         inkscape:connector-curvature="0"
         d="M -720.354,190.354 C -729.403,181.307 -735,168.805 -735,154.998 c 0,-27.613 22.387,-49.997 50,-49.997 13.802,0 26.301,5.594 35.349,14.637"
         id="path4445" />
    </g>
    <path
       style="fill:#0d0f0f"
       inkscape:connector-curvature="0"
       d="m 359.62,185.49454 c 0,2.701 -0.982,4.544 -2.947,5.525 -0.574,0.287 -2.374,0.678 -5.404,1.166 -1.963,0.33 -2.946,1.086 -2.946,2.271 v 4.973 c 0,0.209 0.063,0.842 0.184,1.905 l 0.185,1.966 c 0,0.613 -0.144,1.617 -0.431,3.008 -0.777,0.163 -1.678,0.348 -2.701,0.555 -0.328,-1.23 -0.491,-2.069 -0.491,-2.52 0,-0.203 0.05,-0.512 0.153,-0.921 0.102,-0.407 0.154,-0.716 0.154,-0.922 0,-0.284 -0.253,-1.083 -0.762,-2.394 h -0.953 c -0.126,0.205 -0.167,0.472 -0.127,0.797 0.164,0.697 0.225,1.289 0.185,1.781 -0.697,0.491 -1.657,1.146 -2.885,1.965 -0.289,-0.082 -0.389,-0.123 -0.308,-0.123 v -4.359 c -0.081,-0.203 -0.285,-0.285 -0.614,-0.246 h -0.737 l -0.737,5.771 c -0.573,0.041 -1.268,0.041 -2.086,0 -0.287,-1.351 -0.799,-3.354 -1.535,-6.017 h -0.493 c -0.45,1.433 -0.695,2.211 -0.737,2.334 0,0.163 0.052,0.479 0.155,0.951 0.101,0.472 0.153,0.787 0.153,0.951 0,0.122 -0.042,0.43 -0.125,0.921 l -0.184,1.475 c -0.083,0.079 -0.183,0.12 -0.306,0.12 -1.228,0 -2.048,-0.307 -2.455,-0.919 -0.412,-0.615 -0.576,-1.475 -0.493,-2.58 l 0.493,-7.365 c 0,-0.123 0.039,-0.287 0.121,-0.492 0.082,-0.203 0.123,-0.348 0.123,-0.428 0,-0.328 -0.348,-0.984 -1.043,-1.968 -0.123,-0.04 -0.757,-0.185 -1.904,-0.431 -0.695,-0.162 -2.067,-0.449 -4.112,-0.857 -2.825,-0.531 -4.238,-2.803 -4.238,-6.814 0,-5.978 2.457,-10.949 7.367,-14.92 0.204,1.106 0.554,2.578 1.045,4.42 0.368,0.084 1.167,0.269 2.394,0.554 0.247,0.081 1.494,0.532 3.745,1.351 -1.145,-0.695 -2.64,-1.818 -4.48,-3.375 -0.697,-0.818 -1.046,-2.19 -1.046,-4.113 0,-0.452 0.778,-0.982 2.335,-1.6 1.391,-0.572 2.434,-0.896 3.131,-0.979 2.209,-0.286 3.908,-0.431 5.096,-0.431 5.115,0 9.25,1.311 12.401,3.932 -1.022,1.188 -2.783,2.453 -5.279,3.806 0.982,0.041 2.415,-0.347 4.298,-1.168 1.882,-0.815 2.68,-1.228 2.394,-1.228 0.327,0 0.983,0.656 1.965,1.965 0.735,0.982 1.329,1.863 1.78,2.64 1.31,2.333 2.19,4.853 2.641,7.552 0,0.942 0.02,1.617 0.061,2.025 l 0,0.49 0,0 z m -23.516,1.108 c 0,-1.761 -0.767,-3.429 -2.301,-5.006 -1.536,-1.576 -3.185,-2.363 -4.944,-2.363 -1.555,0 -2.925,0.66 -4.113,1.978 -1.187,1.319 -1.78,2.782 -1.78,4.39 0,1.4 0.675,2.309 2.026,2.719 0.86,0.248 2.066,0.392 3.621,0.434 h 3.377 c 2.743,0.035 4.114,-0.682 4.114,-2.152 z m 6.693,7.612 v -1.901 c -0.286,-0.533 -0.573,-1.088 -0.858,-1.66 -0.246,-0.817 -0.697,-1.963 -1.351,-3.439 l -0.676,7.184 c 0,0.576 -0.122,0.861 -0.369,0.861 -0.163,0 -0.287,-0.04 -0.368,-0.123 -0.287,-4.338 -0.429,-6.222 -0.429,-5.646 v -2.148 c -0.083,-0.126 -0.185,-0.188 -0.308,-0.188 -1.391,1.437 -2.086,3.748 -2.086,6.938 0,1.761 0.163,2.845 0.49,3.257 0.329,-0.082 0.695,-0.226 1.107,-0.431 0.163,-0.083 0.633,-0.123 1.411,-0.123 0.775,0 1.72,0.245 2.823,0.735 0.41,-0.003 0.614,-1.105 0.614,-3.316 z m 13.876,-8.556 c 0,-1.646 -0.614,-3.119 -1.842,-4.418 -1.228,-1.297 -2.64,-1.945 -4.234,-1.945 -1.72,0 -3.328,0.787 -4.821,2.361 -1.495,1.576 -2.242,3.224 -2.242,4.945 0,1.432 0.697,2.147 2.088,2.147 h 7.059 c 2.662,-0.04 3.992,-1.068 3.992,-3.09 z"
       id="path4449" />
    <path
       style="fill:#111212"
       inkscape:connector-curvature="0"
       d="m 287.43504,150.88386 c -0.0319,-2.83767 0.90288,-5.70244 2.73452,-7.92678 0.88526,-0.94043 1.61307,-2.01091 2.55063,-2.8998 2.06672,-1.97851 5.16128,-2.11022 7.65081,-3.35647 0.14479,-1.25158 0.61935,-2.50365 0.33197,-3.7664 -0.0875,-0.41993 -0.21581,-0.84585 0.016,-1.2473 0.65293,-1.45069 0.0919,-3.02565 0.2081,-4.53848 0.087,-0.79015 0.0314,-1.75707 0.81149,-2.24508 0.18168,1.64454 0.80874,3.17488 1.31688,4.73547 0.23453,1.21599 0.23453,2.48299 0.77791,3.62992 -0.34463,1.16183 0.33803,2.13996 1.07685,2.99807 1.63289,0.80709 3.57629,0.9988 4.99722,2.18238 1.01354,0.82943 2.10745,1.5564 3.24156,2.2313 0.85058,1.02695 1.79255,2.01621 2.17131,3.31342 1.52059,1.77091 1.70006,4.14767 2.5622,6.22177 0.016,3.07924 -0.63091,6.39481 -2.6701,8.86291 -1.45892,1.16182 -2.47852,2.72457 -3.93523,3.88696 -1.39837,0.80499 -2.89087,1.46663 -4.33493,2.1914 -0.94142,0.2115 -1.91311,0.31527 -2.84958,0.56237 -0.75974,3.77486 -1.27834,7.64163 -2.80333,11.22163 -0.50594,-1.46983 -0.44483,-3.04474 -0.88141,-4.52998 -0.6155,-2.19622 0.64743,-4.48216 -0.0644,-6.63806 -1.06694,-0.9202 -2.84627,-0.32271 -4.02993,-1.11243 -2.25279,-1.33973 -4.63661,-2.64438 -6.27061,-4.69405 -0.60834,-1.17828 -1.88613,-2.05868 -1.88613,-3.4722 -0.0105,-1.90367 -1.16108,-3.68623 -0.72176,-5.61057 z m 16.722,11.64484 c 1.63234,-0.38271 3.15292,-1.13581 4.5221,-2.05549 1.47324,-0.94678 2.02267,-2.7134 3.47609,-3.68198 1.36093,-1.56695 1.06639,-3.70743 1.62408,-5.56276 -0.22351,-1.29459 -0.48722,-2.57853 -0.62651,-3.88958 -0.66394,-1.03865 -1.68849,-1.86699 -1.97257,-3.11695 -0.9728,-1.34451 -2.45429,-2.27482 -3.644,-3.44037 -0.86544,-0.96271 -2.24289,-0.55702 -3.37974,-0.5942 0.11286,1.06199 0.20259,2.1601 -0.0732,3.20777 -0.13434,0.64359 -0.43548,1.27759 -0.33198,1.95197 0.22792,1.43317 -0.32977,2.8706 0.0644,4.28731 0.79443,2.96194 -0.0721,5.95199 -0.14754,8.93779 0.11286,1.32274 0.17672,2.65503 0.48888,3.95649 z m -12.37441,-5.61268 c 1.08125,0.74129 2.0023,1.65194 2.94592,2.54083 1.64005,1.09387 3.26083,2.25149 5.21303,2.7984 -0.17617,-1.34289 -0.34794,-2.72457 0.0958,-4.03934 1.08896,-2.97039 -0.24554,-6.07731 -0.47071,-9.08116 0.19875,-1.78575 0.009,-3.691 0.85774,-5.33602 0.11121,-1.23565 -0.44263,-2.42882 -0.8181,-3.5917 -1.28935,0.49647 -2.50329,1.1666 -3.57628,2.02843 -1.29596,0.93667 -3.2812,1.54413 -3.57133,3.29114 -0.1481,1.1475 -1.45011,1.84149 -1.41213,3.01553 0.0815,2.79095 -0.31766,5.70989 0.73607,8.37389 z"
       id="path4677" />
  </g>
</svg>
