<?xml version="1.0" encoding="UTF-8" standalone="no"?>
<!-- Created with Inkscape (http://www.inkscape.org/) -->

<svg
   xmlns:dc="http://purl.org/dc/elements/1.1/"
   xmlns:cc="http://creativecommons.org/ns#"
   xmlns:rdf="http://www.w3.org/1999/02/22-rdf-syntax-ns#"
   xmlns:svg="http://www.w3.org/2000/svg"
   xmlns="http://www.w3.org/2000/svg"
   xmlns:sodipodi="http://sodipodi.sourceforge.net/DTD/sodipodi-0.dtd"
   xmlns:inkscape="http://www.inkscape.org/namespaces/inkscape"
   width="100"
   height="100"
   id="svg4776"
   version="1.1"
   inkscape:version="0.48.5 r10040"
   sodipodi:docname="mana-14.svg">
  <defs
     id="defs4778" />
  <sodipodi:namedview
     id="base"
     pagecolor="#ffffff"
     bordercolor="#666666"
     borderopacity="1.0"
     inkscape:pageopacity="0.0"
     inkscape:pageshadow="2"
     inkscape:zoom="3.959798"
     inkscape:cx="54.627078"
     inkscape:cy="63.23211"
     inkscape:document-units="px"
     inkscape:current-layer="layer1"
     showgrid="false"
     inkscape:window-width="1920"
     inkscape:window-height="1137"
     inkscape:window-x="1912"
     inkscape:window-y="-8"
     inkscape:window-maximized="1"
     fit-margin-top="0"
     fit-margin-left="0"
     fit-margin-right="0"
     fit-margin-bottom="0"
     gridtolerance="10"
     objecttolerance="20"
     guidetolerance="10000">
    <sodipodi:guide
       position="0,0"
       orientation="0,100"
       id="guide4839" />
    <sodipodi:guide
       position="100,0"
       orientation="-100,0"
       id="guide4841" />
    <sodipodi:guide
       position="100,100"
       orientation="0,-100"
       id="guide4843" />
    <sodipodi:guide
       position="0,100"
       orientation="100,0"
       id="guide4845" />
  </sodipodi:namedview>
  <metadata
     id="metadata4781">
    <rdf:RDF>
      <cc:Work
         rdf:about="">
        <dc:format>image/svg+xml</dc:format>
        <dc:type
           rdf:resource="http://purl.org/dc/dcmitype/StillImage" />
        <dc:title></dc:title>
      </cc:Work>
    </rdf:RDF>
  </metadata>
  <g
     inkscape:label="Layer 1"
     inkscape:groupmode="layer"
     id="layer1"
     transform="translate(-270,-119.50504)">
    <g
       transform="translate(690,224.50504)"
       id="g4341">
      <path
         style="fill:#cac5c0"
         inkscape:connector-curvature="0"
         d="M -320,-55.002 C -320,-27.387 -342.387,-5 -370.002,-5 -397.615,-5 -420,-27.387 -420,-55.002 c 0,-27.613 22.385,-49.998 49.998,-49.998 27.615,0 50.002,22.385 50.002,49.998 z"
         id="path4343" />
    </g>
    <path
       style="fill:#0d0f0f"
       inkscape:connector-curvature="0"
       d="m 304.67,137.63404 v 50.84 c 0,6.045 2.516,9.07 7.537,9.07 h 1.277 v 3.445 h -27.078 v -3.445 h 1.787 c 5.109,0 7.666,-3.025 7.666,-9.07 v -33.344 c 0,-6.129 -2.172,-9.195 -6.518,-9.195 h -2.682 v -3.449 h 1.023 c 5.281,0 10.047,-1.617 14.305,-4.852 h 2.683 z m 17.885,1.273 h 23.121 c 2.984,0 4.771,-0.336 5.369,-1.02 h 3.322 l -1.918,8.688 H 324.22 l -2.682,12.516 c 3.998,-1.617 7.578,-2.428 10.729,-2.428 6.133,0 11.305,2.049 15.52,6.135 4.215,4.084 6.32,9.193 6.32,15.328 0,7.152 -2.723,12.898 -8.17,17.246 -5.115,4 -11.291,6.004 -18.525,6.004 -4.258,0 -8.43,-0.641 -12.516,-1.918 l 1.273,-3.191 c 3.404,0.934 6.43,1.402 9.07,1.402 5.281,0 9.902,-1.742 13.861,-5.234 3.961,-3.492 5.936,-7.84 5.936,-13.031 0,-4.512 -1.465,-8.219 -4.402,-11.113 -2.941,-2.895 -6.621,-4.344 -11.051,-4.344 -4.172,0 -8.045,1.449 -11.625,4.344 l -2.168,-0.383 6.765,-29.001 z"
       id="path4345" />
  </g>
</svg>
