<?xml version="1.0" encoding="UTF-8" standalone="no"?>
<!-- Created with Inkscape (http://www.inkscape.org/) -->

<svg
   xmlns:dc="http://purl.org/dc/elements/1.1/"
   xmlns:cc="http://creativecommons.org/ns#"
   xmlns:rdf="http://www.w3.org/1999/02/22-rdf-syntax-ns#"
   xmlns:svg="http://www.w3.org/2000/svg"
   xmlns="http://www.w3.org/2000/svg"
   xmlns:sodipodi="http://sodipodi.sourceforge.net/DTD/sodipodi-0.dtd"
   xmlns:inkscape="http://www.inkscape.org/namespaces/inkscape"
   width="100"
   height="100"
   id="svg4776"
   version="1.1"
   inkscape:version="0.48.5 r10040"
   sodipodi:docname="mana-2w.svg">
  <defs
     id="defs4778" />
  <sodipodi:namedview
     id="base"
     pagecolor="#ffffff"
     bordercolor="#666666"
     borderopacity="1.0"
     inkscape:pageopacity="0.0"
     inkscape:pageshadow="2"
     inkscape:zoom="3.959798"
     inkscape:cx="54.627078"
     inkscape:cy="63.23211"
     inkscape:document-units="px"
     inkscape:current-layer="layer1"
     showgrid="false"
     inkscape:window-width="1920"
     inkscape:window-height="1137"
     inkscape:window-x="1912"
     inkscape:window-y="-8"
     inkscape:window-maximized="1"
     fit-margin-top="0"
     fit-margin-left="0"
     fit-margin-right="0"
     fit-margin-bottom="0"
     gridtolerance="10"
     objecttolerance="20"
     guidetolerance="10000">
    <sodipodi:guide
       position="0,0"
       orientation="0,100"
       id="guide4839" />
    <sodipodi:guide
       position="100,0"
       orientation="-100,0"
       id="guide4841" />
    <sodipodi:guide
       position="100,100"
       orientation="0,-100"
       id="guide4843" />
    <sodipodi:guide
       position="0,100"
       orientation="100,0"
       id="guide4845" />
  </sodipodi:namedview>
  <metadata
     id="metadata4781">
    <rdf:RDF>
      <cc:Work
         rdf:about="">
        <dc:format>image/svg+xml</dc:format>
        <dc:type
           rdf:resource="http://purl.org/dc/dcmitype/StillImage" />
        <dc:title></dc:title>
      </cc:Work>
    </rdf:RDF>
  </metadata>
  <g
     inkscape:label="Layer 1"
     inkscape:groupmode="layer"
     id="layer1"
     transform="translate(-270,-119.50504)">
    <g
       transform="translate(1110,-90.49546)"
       id="g4531">
      <path
         style="fill:#c1d7e9"
         inkscape:connector-curvature="0"
         d="m -754.651,224.637 c 9.052,9.051 14.651,21.551 14.651,35.36 0,27.616 -22.386,50.003 -50.001,50.003 -13.806,0 -26.305,-5.596 -35.354,-14.646"
         id="path4533" />
      <path
         style="fill:#cac5c0"
         inkscape:connector-curvature="0"
         d="M -825.354,295.354 C -834.403,286.307 -840,273.805 -840,259.998 c 0,-27.613 22.386,-49.997 49.999,-49.997 13.804,0 26.302,5.593 35.35,14.637"
         id="path4535" />
    </g>
    <path
       style="fill:#0d0f0f"
       inkscape:connector-curvature="0"
       d="m 346.72204,203.17954 c -2.692,2.739 -6.008,4.108 -9.947,4.108 -4.422,0 -7.929,-1.514 -10.524,-4.54 -2.452,-2.884 -3.676,-6.558 -3.676,-11.028 0,-4.804 2.09,-10.281 6.271,-16.434 3.41,-5.047 7.423,-9.467 12.037,-13.264 -0.673,3.076 -1.01,5.262 -1.01,6.561 0,2.98 0.937,5.886 2.811,8.721 2.307,3.365 4.061,5.864 5.262,7.496 1.874,2.835 2.811,5.6 2.811,8.289 10e-4,3.99 -1.344,7.354 -4.035,10.091 z m -0.072,-15.388 c -0.721,-1.609 -1.562,-2.68 -2.523,-3.208 0.145,0.288 0.215,0.698 0.215,1.226 0,1.01 -0.287,2.453 -0.863,4.324 l -0.938,2.885 c 0,1.68 0.839,2.522 2.522,2.522 1.777,0 2.668,-1.177 2.668,-3.532 0,-1.201 -0.36,-2.608 -1.081,-4.217 z"
       id="path4537" />
    <path
       style="fill:#0d0f0f"
       inkscape:connector-curvature="0"
       d="m 313.64604,161.09754 -2.866,9.675 h -23.821 v -2.068 c 1.157,-1.289 3.692,-3.889 7.607,-7.805 2.357,-2.357 4.692,-4.851 7.005,-7.476 1.157,-1.287 2.048,-2.401 2.667,-3.335 1.379,-2 2.07,-4.045 2.07,-6.139 0,-2.045 -0.633,-3.846 -1.901,-5.402 -1.267,-1.559 -2.903,-2.338 -4.905,-2.338 -4.313,0 -7.694,2.915 -10.14,8.742 l -2.137,-0.801 c 2.891,-8.185 7.448,-12.276 13.678,-12.276 3.069,0 5.682,1.044 7.839,3.135 2.159,2.091 3.236,4.67 3.236,7.74 0,3.915 -2.245,7.739 -6.738,11.478 l -4.668,3.866 c -2.981,2.492 -5.453,4.827 -7.406,7.007 -0.136,0.135 -0.402,0.446 -0.802,0.936 h 12.41 c 1.912,0 3.359,-0.377 4.335,-1.135 0.845,-0.668 1.67,-1.937 2.47,-3.803 l 2.067,-0.001 0,0 z"
       id="path4539" />
  </g>
</svg>
