<?xml version="1.0" encoding="UTF-8" standalone="no"?>
<!-- Created with Inkscape (http://www.inkscape.org/) -->

<svg
   xmlns:dc="http://purl.org/dc/elements/1.1/"
   xmlns:cc="http://creativecommons.org/ns#"
   xmlns:rdf="http://www.w3.org/1999/02/22-rdf-syntax-ns#"
   xmlns:svg="http://www.w3.org/2000/svg"
   xmlns="http://www.w3.org/2000/svg"
   xmlns:sodipodi="http://sodipodi.sourceforge.net/DTD/sodipodi-0.dtd"
   xmlns:inkscape="http://www.inkscape.org/namespaces/inkscape"
   width="100"
   height="100"
   id="svg4776"
   version="1.1"
   inkscape:version="0.48.5 r10040"
   sodipodi:docname="mana-wu-gray.svg">
  <defs
     id="defs4778" />
  <sodipodi:namedview
     id="base"
     pagecolor="#ffffff"
     bordercolor="#666666"
     borderopacity="1.0"
     inkscape:pageopacity="0.0"
     inkscape:pageshadow="2"
     inkscape:zoom="3.959798"
     inkscape:cx="15.231129"
     inkscape:cy="63.23211"
     inkscape:document-units="px"
     inkscape:current-layer="layer1"
     showgrid="false"
     inkscape:window-width="1920"
     inkscape:window-height="1137"
     inkscape:window-x="1912"
     inkscape:window-y="-8"
     inkscape:window-maximized="1"
     fit-margin-top="0"
     fit-margin-left="0"
     fit-margin-right="0"
     fit-margin-bottom="0"
     gridtolerance="1"
     objecttolerance="1"
     guidetolerance="1">
    <sodipodi:guide
       position="0,0"
       orientation="0,100"
       id="guide4839" />
    <sodipodi:guide
       position="100,0"
       orientation="-100,0"
       id="guide4841" />
    <sodipodi:guide
       position="100,100"
       orientation="0,-100"
       id="guide4843" />
    <sodipodi:guide
       position="0,100"
       orientation="100,0"
       id="guide4845" />
  </sodipodi:namedview>
  <metadata
     id="metadata4781">
    <rdf:RDF>
      <cc:Work
         rdf:about="">
        <dc:format>image/svg+xml</dc:format>
        <dc:type
           rdf:resource="http://purl.org/dc/dcmitype/StillImage" />
        <dc:title></dc:title>
      </cc:Work>
    </rdf:RDF>
  </metadata>
  <g
     inkscape:label="Layer 1"
     inkscape:groupmode="layer"
     id="layer1"
     transform="translate(-270,-119.50504)">
    <g
       transform="translate(1215,14.50454)"
       id="g4421">
      <path
         style="fill:#cac5c0;fill-opacity:1"
         inkscape:connector-curvature="0"
         d="m -859.651,119.637 c 9.052,9.051 14.651,21.551 14.651,35.36 0,27.616 -22.387,50.003 -50.001,50.003 -13.806,0 -26.305,-5.596 -35.354,-14.646"
         id="path4423" />
      <path
         style="fill:#cac5c0;fill-opacity:1"
         inkscape:connector-curvature="0"
         d="M -930.354,190.354 C -939.403,181.307 -945,168.805 -945,154.998 c 0,-27.613 22.386,-49.997 49.999,-49.997 13.804,0 26.302,5.594 35.35,14.637"
         id="path4425" />
    </g>
    <path
       style="fill:#0d0f0f"
       inkscape:connector-curvature="0"
       d="m 346.72199,203.17954 c -2.693,2.739 -6.007,4.109 -9.946,4.109 -4.423,0 -7.93,-1.515 -10.525,-4.541 -2.452,-2.884 -3.676,-6.558 -3.676,-11.028 0,-4.804 2.09,-10.281 6.271,-16.434 3.41,-5.047 7.423,-9.467 12.037,-13.264 -0.672,3.076 -1.009,5.262 -1.009,6.561 0,2.98 0.935,5.886 2.812,8.721 2.305,3.365 4.06,5.864 5.261,7.496 1.874,2.835 2.813,5.6 2.813,8.289 -0.001,3.99 -1.348,7.354 -4.038,10.091 z m -0.071,-15.388 c -0.722,-1.609 -1.563,-2.68 -2.524,-3.208 0.145,0.288 0.216,0.698 0.216,1.226 0,1.01 -0.287,2.453 -0.864,4.324 l -0.938,2.885 c 0,1.68 0.84,2.522 2.524,2.522 1.776,0 2.667,-1.177 2.667,-3.532 -10e-4,-1.201 -0.361,-2.608 -1.081,-4.217 z"
       id="path4427" />
    <path
       style="fill:#111212"
       inkscape:connector-curvature="0"
       d="m 292.19512,151.15816 c -0.0298,-2.60356 0.84317,-5.23198 2.55367,-7.27281 0.82671,-0.86285 1.50639,-1.84501 2.38194,-2.66057 1.93004,-1.81528 4.81994,-1.93612 7.14482,-3.07956 0.13521,-1.14832 0.57839,-2.29709 0.31001,-3.45566 -0.0817,-0.38529 -0.20154,-0.77607 0.0149,-1.1444 0.60975,-1.33101 0.0858,-2.77603 0.19434,-4.16405 0.0812,-0.72496 0.0293,-1.61211 0.75782,-2.05986 0.16967,1.50886 0.75525,2.91295 1.22979,4.34479 0.21902,1.11567 0.21902,2.27814 0.72646,3.33045 -0.32184,1.06597 0.31567,1.96341 1.00563,2.75072 1.5249,0.74051 3.33977,0.9164 4.66672,2.00233 0.94651,0.76101 1.96808,1.428 3.02718,2.04722 0.79433,0.94223 1.674,1.84987 2.02771,3.04006 1.42002,1.62481 1.58762,3.80548 2.39274,5.70847 0.0149,2.8252 -0.58918,5.86723 -2.49351,8.13171 -1.36243,1.06597 -2.3146,2.49979 -3.67496,3.56628 -1.30589,0.73858 -2.69968,1.34563 -4.04824,2.01061 -0.87916,0.19405 -1.78658,0.28926 -2.66112,0.51597 -0.70949,3.46344 -1.19379,7.01119 -2.61793,10.29584 -0.47248,-1.34857 -0.41541,-2.79355 -0.82311,-4.15625 -0.5748,-2.01503 0.60461,-4.11238 -0.0601,-6.09042 -0.99638,-0.84428 -2.65803,-0.29608 -3.76341,-1.02065 -2.1038,-1.2292 -4.32996,-2.42622 -5.8559,-4.30679 -0.5681,-1.08107 -1.76138,-1.88883 -1.76138,-3.18574 -0.01,-1.74661 -1.0843,-3.38211 -0.67403,-5.14769 z m 15.61607,10.68413 c 1.52439,-0.35114 2.9444,-1.0421 4.22303,-1.88591 1.3758,-0.86867 1.8889,-2.48954 3.24619,-3.37821 1.27093,-1.43768 0.99587,-3.40157 1.51667,-5.10383 -0.20873,-1.18779 -0.45499,-2.3658 -0.58507,-3.56869 -0.62003,-0.95296 -1.57682,-1.71296 -1.84211,-2.8598 -0.90847,-1.23358 -2.29198,-2.08714 -3.403,-3.15653 -0.80821,-0.88329 -2.09456,-0.51107 -3.15622,-0.54518 0.1054,0.97437 0.18919,1.98189 -0.0684,2.94313 -0.12545,0.59049 -0.40668,1.17218 -0.31002,1.79093 0.21284,1.31493 -0.30796,2.63377 0.0601,3.9336 0.74189,2.71758 -0.0673,5.46095 -0.13779,8.20041 0.1054,1.21362 0.16504,2.43599 0.45655,3.63008 z m -11.55601,-5.14963 c 1.00974,0.68013 1.86987,1.51565 2.75109,2.33121 1.53158,1.00363 3.04517,2.06574 4.86826,2.56753 -0.16452,-1.2321 -0.32493,-2.49979 0.0895,-3.70609 1.01694,-2.72533 -0.2293,-5.57593 -0.43958,-8.33196 0.18561,-1.63842 0.008,-3.38649 0.80101,-4.89579 0.10386,-1.13371 -0.41335,-2.22844 -0.76399,-3.29538 -1.20408,0.45551 -2.33773,1.07035 -3.33976,1.86108 -1.21025,0.85939 -3.06419,1.41674 -3.33513,3.01962 -0.13831,1.05283 -1.35421,1.68956 -1.31874,2.76674 0.0761,2.5607 -0.29665,5.23882 0.68739,7.68304 z"
       id="path4677" />
  </g>
</svg>
