<?xml version="1.0" encoding="UTF-8" standalone="no"?>
<!-- Created with Inkscape (http://www.inkscape.org/) -->

<svg
   xmlns:dc="http://purl.org/dc/elements/1.1/"
   xmlns:cc="http://creativecommons.org/ns#"
   xmlns:rdf="http://www.w3.org/1999/02/22-rdf-syntax-ns#"
   xmlns:svg="http://www.w3.org/2000/svg"
   xmlns="http://www.w3.org/2000/svg"
   xmlns:sodipodi="http://sodipodi.sourceforge.net/DTD/sodipodi-0.dtd"
   xmlns:inkscape="http://www.inkscape.org/namespaces/inkscape"
   width="100"
   height="100"
   id="svg4776"
   version="1.1"
   inkscape:version="0.48.5 r10040"
   sodipodi:docname="mana-8.svg">
  <defs
     id="defs4778" />
  <sodipodi:namedview
     id="base"
     pagecolor="#ffffff"
     bordercolor="#666666"
     borderopacity="1.0"
     inkscape:pageopacity="0.0"
     inkscape:pageshadow="2"
     inkscape:zoom="3.959798"
     inkscape:cx="54.627078"
     inkscape:cy="63.23211"
     inkscape:document-units="px"
     inkscape:current-layer="layer1"
     showgrid="false"
     inkscape:window-width="1920"
     inkscape:window-height="1137"
     inkscape:window-x="1912"
     inkscape:window-y="-8"
     inkscape:window-maximized="1"
     fit-margin-top="0"
     fit-margin-left="0"
     fit-margin-right="0"
     fit-margin-bottom="0"
     gridtolerance="10"
     objecttolerance="20"
     guidetolerance="10000">
    <sodipodi:guide
       position="0,0"
       orientation="0,100"
       id="guide4839" />
    <sodipodi:guide
       position="100,0"
       orientation="-100,0"
       id="guide4841" />
    <sodipodi:guide
       position="100,100"
       orientation="0,-100"
       id="guide4843" />
    <sodipodi:guide
       position="0,100"
       orientation="100,0"
       id="guide4845" />
  </sodipodi:namedview>
  <metadata
     id="metadata4781">
    <rdf:RDF>
      <cc:Work
         rdf:about="">
        <dc:format>image/svg+xml</dc:format>
        <dc:type
           rdf:resource="http://purl.org/dc/dcmitype/StillImage" />
        <dc:title></dc:title>
      </cc:Work>
    </rdf:RDF>
  </metadata>
  <g
     inkscape:label="Layer 1"
     inkscape:groupmode="layer"
     id="layer1"
     transform="translate(-270,-119.50504)">
    <g
       transform="translate(270,329.50704)"
       id="g4311">
      <circle
         style="fill:#cac5c0"
         sodipodi:ry="50"
         sodipodi:rx="50"
         sodipodi:cy="-160.002"
         sodipodi:cx="50"
         d="m 100,-160.002 c 0,27.61424 -22.385763,50 -50,50 -27.614237,0 -50,-22.38576 -50,-50 0,-27.61424 22.385763,-50 50,-50 27.614237,0 50,22.38576 50,50 z"
         cx="50"
         cy="-160.002"
         r="50"
         id="circle4313" />
    </g>
    <path
       style="fill:#0d0f0f"
       inkscape:connector-curvature="0"
       d="m 333.402,175.03104 c -5.922,5.567 -11.898,8.353 -17.91,8.353 -6.555,0 -11.809,-2.604 -15.758,-7.814 -3.684,-4.758 -5.523,-10.507 -5.523,-17.241 0,-7.272 2.152,-13.777 6.461,-19.526 4.672,-6.199 10.555,-9.296 17.648,-9.296 8.622,0 15.489,3.728 20.605,11.181 4.582,6.554 6.867,14.319 6.867,23.302 0,12.746 -4.224,23.498 -12.655,32.257 -8.441,8.752 -18.993,13.174 -31.653,13.261 v -4.175 c 3.859,-0.176 6.953,-0.626 9.297,-1.344 12.922,-3.951 20.469,-13.601 22.621,-28.958 z m 0.813,-8.082 c 0.086,-1.706 0.129,-3.322 0.129,-4.846 0,-6.285 -1.074,-12.034 -3.23,-17.24 -2.875,-6.916 -7,-10.374 -12.386,-10.374 -4.676,0 -8.125,2.385 -10.375,7.141 -1.797,3.683 -2.691,8.126 -2.691,13.334 0,5.566 0.852,10.324 2.559,14.275 2.332,5.387 5.926,8.083 10.777,8.083 5.92,0 10.99,-3.458 15.217,-10.373 z"
       id="path4315" />
  </g>
</svg>
