<?xml version="1.0" encoding="UTF-8" standalone="no"?>
<!-- Created with Inkscape (http://www.inkscape.org/) -->

<svg
   xmlns:dc="http://purl.org/dc/elements/1.1/"
   xmlns:cc="http://creativecommons.org/ns#"
   xmlns:rdf="http://www.w3.org/1999/02/22-rdf-syntax-ns#"
   xmlns:svg="http://www.w3.org/2000/svg"
   xmlns="http://www.w3.org/2000/svg"
   xmlns:sodipodi="http://sodipodi.sourceforge.net/DTD/sodipodi-0.dtd"
   xmlns:inkscape="http://www.inkscape.org/namespaces/inkscape"
   width="100"
   height="100"
   id="svg4776"
   version="1.1"
   inkscape:version="0.48.5 r10040"
   sodipodi:docname="mana-bg-gray.svg">
  <defs
     id="defs4778" />
  <sodipodi:namedview
     id="base"
     pagecolor="#ffffff"
     bordercolor="#666666"
     borderopacity="1.0"
     inkscape:pageopacity="0.0"
     inkscape:pageshadow="2"
     inkscape:zoom="3.959798"
     inkscape:cx="15.231129"
     inkscape:cy="63.23211"
     inkscape:document-units="px"
     inkscape:current-layer="layer1"
     showgrid="false"
     inkscape:window-width="1920"
     inkscape:window-height="1137"
     inkscape:window-x="1912"
     inkscape:window-y="-8"
     inkscape:window-maximized="1"
     fit-margin-top="0"
     fit-margin-left="0"
     fit-margin-right="0"
     fit-margin-bottom="0"
     gridtolerance="10"
     objecttolerance="20"
     guidetolerance="10">
    <sodipodi:guide
       position="0,0"
       orientation="0,100"
       id="guide4839" />
    <sodipodi:guide
       position="100,0"
       orientation="-100,0"
       id="guide4841" />
    <sodipodi:guide
       position="100,100"
       orientation="0,-100"
       id="guide4843" />
    <sodipodi:guide
       position="0,100"
       orientation="100,0"
       id="guide4845" />
  </sodipodi:namedview>
  <metadata
     id="metadata4781">
    <rdf:RDF>
      <cc:Work
         rdf:about="">
        <dc:format>image/svg+xml</dc:format>
        <dc:type
           rdf:resource="http://purl.org/dc/dcmitype/StillImage" />
        <dc:title></dc:title>
      </cc:Work>
    </rdf:RDF>
  </metadata>
  <g
     inkscape:label="Layer 1"
     inkscape:groupmode="layer"
     id="layer1"
     transform="translate(-270,-119.50504)">
    <g
       transform="translate(690,14.50454)"
       id="g4471">
      <path
         style="fill:#cac5c0;fill-opacity:1"
         inkscape:connector-curvature="0"
         d="m -334.651,119.637 c 9.053,9.051 14.651,21.551 14.651,35.36 0,27.616 -22.387,50.003 -50,50.003 -13.807,0 -26.305,-5.596 -35.354,-14.646"
         id="path4473" />
      <path
         style="fill:#cac5c0;fill-opacity:1"
         inkscape:connector-curvature="0"
         d="m -405.354,190.354 c -9.05,-9.047 -14.646,-21.549 -14.646,-35.356 0,-27.613 22.387,-49.997 50,-49.997 13.802,0 26.301,5.594 35.349,14.637"
         id="path4475" />
    </g>
    <path
       style="fill:#0d0f0f"
       inkscape:connector-curvature="0"
       d="m 359.519,187.12254 c 0,0.758 -0.293,1.437 -0.879,2.043 -0.586,0.604 -1.258,0.905 -2.016,0.905 -1.207,0 -2.098,-0.566 -2.663,-1.701 l -2.667,-0.112 c -0.567,0 -1.684,0.246 -3.345,0.737 -1.777,0.49 -2.798,0.888 -3.064,1.189 -0.414,0.454 -0.755,1.514 -1.02,3.178 -0.228,1.36 -0.339,2.363 -0.339,3.006 0,1.02 0.16,1.768 0.48,2.24 0.321,0.473 0.984,0.869 1.984,1.189 1,0.318 1.616,0.502 1.844,0.539 0.151,0 0.396,-0.018 0.737,-0.057 h 0.681 c 0.491,0 1.001,0.076 1.532,0.227 0.755,0.227 1.077,0.527 0.965,0.907 -0.531,-0.074 -1.456,0.038 -2.778,0.34 l 1.586,0.795 c 0,0.454 -0.643,0.679 -1.928,0.679 -0.342,0 -0.806,-0.072 -1.39,-0.225 -0.588,-0.154 -0.976,-0.229 -1.163,-0.229 h -0.737 c -0.038,0.379 -0.15,0.943 -0.34,1.701 -0.646,-0.037 -1.399,-0.416 -2.27,-1.133 -0.87,-0.72 -1.418,-1.079 -1.643,-1.079 -0.228,0 -0.551,0.359 -0.965,1.079 -0.417,0.717 -0.624,1.207 -0.624,1.475 -0.491,-0.268 -0.906,-0.758 -1.249,-1.475 -0.151,-0.494 -0.321,-0.986 -0.509,-1.479 -0.379,0.039 -1.077,0.836 -2.099,2.385 h -0.284 c -0.077,-0.113 -0.36,-0.906 -0.852,-2.385 -1.172,-0.375 -2.268,-0.563 -3.288,-0.563 -0.491,0 -1.249,0.112 -2.27,0.341 l -1.587,-0.113 c 0.226,-0.228 0.888,-0.662 1.984,-1.305 1.284,-0.758 2.269,-1.137 2.949,-1.137 0.112,0 0.264,0.021 0.454,0.059 0.188,0.039 0.341,0.058 0.454,0.058 0.262,0 0.689,-0.142 1.275,-0.427 0.586,-0.283 0.927,-0.539 1.019,-0.766 0.098,-0.229 0.145,-0.813 0.145,-1.759 0,-2.153 -0.568,-3.763 -1.703,-4.819 -0.983,-0.945 -2.608,-1.625 -4.877,-2.043 -0.604,2.154 -2.307,3.234 -5.103,3.234 -0.909,0 -1.816,-0.549 -2.723,-1.646 -0.907,-1.098 -1.361,-2.099 -1.361,-3.007 0,-1.399 0.586,-2.551 1.758,-3.459 -0.944,-0.981 -1.418,-1.983 -1.418,-3.006 0,-0.944 0.292,-1.776 0.879,-2.496 0.586,-0.716 1.353,-1.133 2.297,-1.248 -0.074,-1.208 0.321,-2.042 1.19,-2.495 -0.415,-0.414 -0.622,-1.15 -0.622,-2.211 0,-1.246 0.414,-2.287 1.247,-3.119 0.83,-0.83 1.871,-1.248 3.117,-1.248 1.363,0 2.479,0.475 3.348,1.418 1.098,-3.742 3.459,-5.613 7.089,-5.613 1.889,0 3.554,0.756 4.99,2.27 0.53,0.565 0.793,0.868 0.793,0.905 -0.452,0 -0.225,-0.086 0.681,-0.254 0.909,-0.171 1.568,-0.257 1.986,-0.257 1.474,0 2.778,0.55 3.915,1.646 0.982,0.984 1.663,2.229 2.042,3.742 0.263,0.039 0.679,0.151 1.245,0.341 0.832,0.417 1.249,1.135 1.249,2.155 0,0.188 -0.152,0.549 -0.454,1.079 2.419,1.361 3.63,3.251 3.63,5.67 0,0.681 -0.266,1.627 -0.793,2.836 0.986,0.569 1.478,1.401 1.478,2.498 z m -23.368,2.495 v -0.736 c 0,-0.869 -0.424,-1.664 -1.275,-2.382 -0.851,-0.72 -1.71,-1.077 -2.58,-1.077 -1.06,0 -2.042,0.246 -2.949,0.734 2.004,-0.11 4.271,1.041 6.804,3.461 z m -1.02,-7.03 c -0.566,-0.646 -1.058,-1.306 -1.474,-1.985 -1.589,0.414 -2.383,0.889 -2.383,1.416 0.453,-0.037 1.116,0.047 1.984,0.256 0.87,0.209 1.496,0.313 1.873,0.313 z m 3.462,-1.761 v -2.495 c -0.909,-0.149 -1.459,-0.226 -1.646,-0.226 v 0.851 l 1.646,1.87 z m 7.372,-1.586 c -0.454,-0.189 -1.305,-0.568 -2.554,-1.135 v 4.877 c 1.778,-1.022 2.628,-2.268 2.554,-3.742 z m 3.116,6.692 -1.246,-1.529 c -0.755,0.529 -1.521,1.066 -2.298,1.615 -0.775,0.547 -1.445,1.162 -2.011,1.844 1.699,-0.911 3.554,-1.551 5.555,-1.93 z"
       id="path4479" />
    <path
       style="fill:#111212"
       inkscape:connector-curvature="0"
       d="m 288.96493,151.82148 c -0.0319,-2.83767 0.90288,-5.70244 2.73452,-7.92678 0.88526,-0.94043 1.61307,-2.01091 2.55063,-2.8998 2.06672,-1.97851 5.16128,-2.11022 7.65081,-3.35647 0.14479,-1.25158 0.61935,-2.50365 0.33197,-3.7664 -0.0875,-0.41993 -0.21581,-0.84585 0.016,-1.2473 0.65293,-1.45069 0.0919,-3.02565 0.2081,-4.53848 0.087,-0.79015 0.0314,-1.75707 0.81149,-2.24508 0.18168,1.64454 0.80874,3.17488 1.31688,4.73547 0.23453,1.21599 0.23453,2.48299 0.77791,3.62992 -0.34463,1.16183 0.33803,2.13996 1.07685,2.99807 1.63289,0.80709 3.57629,0.9988 4.99722,2.18238 1.01354,0.82943 2.10745,1.5564 3.24156,2.2313 0.85058,1.02695 1.79255,2.01621 2.17131,3.31342 1.52059,1.77091 1.70006,4.14767 2.5622,6.22177 0.016,3.07924 -0.63091,6.39481 -2.6701,8.86291 -1.45892,1.16182 -2.47852,2.72457 -3.93523,3.88696 -1.39837,0.80499 -2.89087,1.46663 -4.33493,2.1914 -0.94142,0.2115 -1.91311,0.31527 -2.84958,0.56237 -0.75974,3.77486 -1.27834,7.64163 -2.80333,11.22163 -0.50594,-1.46983 -0.44483,-3.04474 -0.88141,-4.52998 -0.6155,-2.19622 0.64743,-4.48216 -0.0644,-6.63806 -1.06694,-0.9202 -2.84627,-0.32271 -4.02993,-1.11243 -2.25279,-1.33973 -4.63661,-2.64438 -6.27061,-4.69405 -0.60834,-1.17828 -1.88613,-2.05868 -1.88613,-3.4722 -0.0105,-1.90367 -1.16108,-3.68623 -0.72176,-5.61057 z m 16.722,11.64484 c 1.63234,-0.38271 3.15292,-1.13581 4.5221,-2.05549 1.47324,-0.94678 2.02267,-2.7134 3.47609,-3.68198 1.36093,-1.56695 1.06639,-3.70743 1.62408,-5.56276 -0.22351,-1.29459 -0.48722,-2.57853 -0.62651,-3.88958 -0.66394,-1.03865 -1.68849,-1.86699 -1.97257,-3.11695 -0.9728,-1.34451 -2.45429,-2.27482 -3.644,-3.44037 -0.86544,-0.96271 -2.24289,-0.55702 -3.37974,-0.5942 0.11286,1.06199 0.20259,2.1601 -0.0732,3.20777 -0.13434,0.64359 -0.43548,1.27759 -0.33198,1.95197 0.22792,1.43317 -0.32977,2.8706 0.0644,4.28731 0.79443,2.96194 -0.0721,5.95199 -0.14754,8.93779 0.11286,1.32274 0.17672,2.65503 0.48888,3.95649 z m -12.37441,-5.61268 c 1.08125,0.74129 2.0023,1.65194 2.94592,2.54083 1.64005,1.09387 3.26083,2.25149 5.21303,2.7984 -0.17617,-1.34289 -0.34794,-2.72457 0.0958,-4.03934 1.08896,-2.97039 -0.24554,-6.07731 -0.47071,-9.08116 0.19875,-1.78575 0.009,-3.691 0.85774,-5.33602 0.11121,-1.23565 -0.44263,-2.42882 -0.8181,-3.5917 -1.28935,0.49647 -2.50329,1.1666 -3.57628,2.02843 -1.29596,0.93667 -3.2812,1.54413 -3.57133,3.29114 -0.1481,1.1475 -1.45011,1.84149 -1.41213,3.01553 0.0815,2.79095 -0.31766,5.70989 0.73607,8.37389 z"
       id="path4677" />
  </g>
</svg>
