<?xml version="1.0" encoding="UTF-8" standalone="no"?>
<!-- Created with Inkscape (http://www.inkscape.org/) -->

<svg
   xmlns:dc="http://purl.org/dc/elements/1.1/"
   xmlns:cc="http://creativecommons.org/ns#"
   xmlns:rdf="http://www.w3.org/1999/02/22-rdf-syntax-ns#"
   xmlns:svg="http://www.w3.org/2000/svg"
   xmlns="http://www.w3.org/2000/svg"
   xmlns:sodipodi="http://sodipodi.sourceforge.net/DTD/sodipodi-0.dtd"
   xmlns:inkscape="http://www.inkscape.org/namespaces/inkscape"
   width="100"
   height="100"
   id="svg4776"
   version="1.1"
   inkscape:version="0.48.5 r10040"
   sodipodi:docname="mana-ur-gray.svg">
  <defs
     id="defs4778" />
  <sodipodi:namedview
     id="base"
     pagecolor="#ffffff"
     bordercolor="#666666"
     borderopacity="1.0"
     inkscape:pageopacity="0.0"
     inkscape:pageshadow="2"
     inkscape:zoom="3.959798"
     inkscape:cx="15.231129"
     inkscape:cy="63.23211"
     inkscape:document-units="px"
     inkscape:current-layer="layer1"
     showgrid="false"
     inkscape:window-width="1920"
     inkscape:window-height="1137"
     inkscape:window-x="1912"
     inkscape:window-y="-8"
     inkscape:window-maximized="1"
     fit-margin-top="0"
     fit-margin-left="0"
     fit-margin-right="0"
     fit-margin-bottom="0"
     gridtolerance="10"
     objecttolerance="20"
     guidetolerance="10">
    <sodipodi:guide
       position="0,0"
       orientation="0,100"
       id="guide4839" />
    <sodipodi:guide
       position="100,0"
       orientation="-100,0"
       id="guide4841" />
    <sodipodi:guide
       position="100,100"
       orientation="0,-100"
       id="guide4843" />
    <sodipodi:guide
       position="0,100"
       orientation="100,0"
       id="guide4845" />
  </sodipodi:namedview>
  <metadata
     id="metadata4781">
    <rdf:RDF>
      <cc:Work
         rdf:about="">
        <dc:format>image/svg+xml</dc:format>
        <dc:type
           rdf:resource="http://purl.org/dc/dcmitype/StillImage" />
        <dc:title></dc:title>
      </cc:Work>
    </rdf:RDF>
  </metadata>
  <g
     inkscape:label="Layer 1"
     inkscape:groupmode="layer"
     id="layer1"
     transform="translate(-270,-119.50504)">
    <g
       transform="translate(900,14.50454)"
       id="g4451">
      <path
         style="fill:#cac5c0;fill-opacity:1"
         inkscape:connector-curvature="0"
         d="m -544.651,119.637 c 9.052,9.051 14.651,21.551 14.651,35.36 0,27.616 -22.387,50.003 -50,50.003 -13.807,0 -26.305,-5.596 -35.354,-14.646"
         id="path4453" />
      <path
         style="fill:#cac5c0;fill-opacity:1"
         inkscape:connector-curvature="0"
         d="M -615.354,190.354 C -624.403,181.307 -630,168.805 -630,154.998 c 0,-27.613 22.387,-49.997 50,-49.997 13.802,0 26.301,5.594 35.349,14.637"
         id="path4455" />
    </g>
    <path
       style="fill:#0d0f0f"
       inkscape:connector-curvature="0"
       d="m 358.3,193.94354 c -1.718,4.1 -5.13,6.146 -10.24,6.146 -0.937,0 -1.952,0.115 -3.044,0.35 -1.639,0.353 -2.458,0.84 -2.458,1.465 0,0.195 0.136,0.418 0.41,0.674 0.272,0.253 0.508,0.381 0.703,0.381 -0.977,0 -0.314,0.029 1.987,0.085 2.303,0.06 3.747,0.089 4.333,0.089 -3.394,1.989 -9.07,2.906 -17.029,2.75 -2.614,-0.037 -4.857,-1.188 -6.729,-3.451 -1.835,-2.146 -2.751,-4.545 -2.751,-7.197 0,-2.81 0.946,-5.198 2.839,-7.17 1.89,-1.968 4.242,-2.953 7.051,-2.953 0.623,0 1.453,0.137 2.486,0.408 1.034,0.273 1.727,0.41 2.077,0.41 1.444,0 3.239,-0.597 5.385,-1.785 2.146,-1.189 3.16,-1.785 3.043,-1.785 -0.391,4.097 -1.756,6.849 -4.097,8.25 -1.678,0.978 -2.516,1.934 -2.516,2.867 0,0.586 0.35,1.055 1.052,1.406 0.546,0.271 1.151,0.408 1.815,0.408 1.014,0 2.008,-0.623 2.984,-1.872 0.974,-1.247 1.403,-2.379 1.286,-3.394 -0.116,-1.172 -0.037,-2.576 0.235,-4.213 0.077,-0.47 0.361,-1.045 0.848,-1.727 0.488,-0.684 0.928,-1.104 1.317,-1.262 0,0.354 -0.127,0.939 -0.38,1.756 -0.254,0.82 -0.38,1.427 -0.38,1.814 0,0.86 0.234,1.523 0.703,1.99 0.701,-0.271 1.324,-1.15 1.872,-2.634 0.468,-1.13 0.74,-2.224 0.82,-3.274 -1.64,-0.078 -3.211,-0.82 -4.711,-2.227 -1.501,-1.404 -2.252,-2.925 -2.252,-4.563 0,-0.271 0.037,-0.547 0.117,-0.819 0.232,0.353 0.583,0.899 1.053,1.64 0.662,0.975 1.17,1.463 1.521,1.463 0.468,0 0.702,-0.488 0.702,-1.463 0,-1.249 -0.332,-2.38 -0.995,-3.395 -0.743,-1.211 -1.699,-1.814 -2.867,-1.814 -0.548,0 -1.366,0.292 -2.458,0.878 -1.093,0.584 -2.088,0.878 -2.983,0.878 -0.273,0 -1.484,-0.353 -3.629,-1.054 3.783,-0.625 5.676,-1.19 5.676,-1.699 0,-1.325 -2.594,-2.223 -7.783,-2.688 -0.508,-0.039 -1.443,-0.117 -2.809,-0.235 0.155,-0.194 1.268,-0.407 3.336,-0.644 1.755,-0.192 2.983,-0.293 3.685,-0.293 9.285,0 15.175,4.506 17.673,13.521 0.431,-0.358 0.645,-0.95 0.645,-1.78 0,-1.068 -0.312,-2.412 -0.937,-4.033 -0.235,-0.635 -0.607,-1.584 -1.113,-2.849 3.198,4.075 4.8,7.938 4.8,11.583 0,1.922 -0.451,3.667 -1.348,5.232 -0.583,1.059 -1.678,2.41 -3.276,4.059 -1.6,1.645 -2.691,2.919 -3.277,3.821 2.146,-0.586 3.551,-1.035 4.214,-1.347 1.481,-0.664 2.828,-1.66 4.037,-2.985 0,0.51 -0.215,1.272 -0.643,2.281 z m -25.514,-22.996 c 0,0.701 -0.391,1.152 -1.17,1.348 l -1.521,0.232 c -0.547,0.272 -1.347,1.348 -2.398,3.219 -0.119,-0.584 -0.293,-1.403 -0.528,-2.457 -0.351,0.037 -0.935,0.352 -1.755,0.936 -0.351,0.273 -0.917,0.684 -1.699,1.229 0.235,-1.403 1.017,-2.826 2.342,-4.271 1.404,-1.598 2.77,-2.396 4.096,-2.396 1.755,-0.002 2.633,0.719 2.633,2.16 z m 10.182,5.385 c 0,0.662 -0.361,1.22 -1.083,1.668 -0.722,0.447 -1.434,0.673 -2.135,0.673 -0.938,0 -1.777,-0.524 -2.517,-1.581 -0.898,-1.285 -1.814,-2.125 -2.75,-2.516 0.194,-0.195 0.429,-0.293 0.704,-0.293 0.349,0 0.944,0.271 1.783,0.818 0.837,0.549 1.375,0.82 1.61,0.82 0.195,0 0.516,-0.271 0.964,-0.82 0.448,-0.547 0.946,-0.818 1.493,-0.818 1.288,0 1.931,0.684 1.931,2.049 z"
       id="path4457" />
    <path
       style="fill:#111212"
       inkscape:connector-curvature="0"
       d="m 285.3832,151.02871 c -0.0319,-2.83767 0.90288,-5.70244 2.73452,-7.92678 0.88526,-0.94043 1.61307,-2.01091 2.55063,-2.8998 2.06672,-1.97851 5.16128,-2.11022 7.65081,-3.35647 0.14479,-1.25158 0.61935,-2.50365 0.33197,-3.7664 -0.0875,-0.41993 -0.21581,-0.84585 0.016,-1.2473 0.65293,-1.45069 0.0919,-3.02565 0.2081,-4.53848 0.087,-0.79015 0.0314,-1.75707 0.81149,-2.24508 0.18168,1.64454 0.80874,3.17488 1.31688,4.73547 0.23453,1.21599 0.23453,2.48299 0.77791,3.62992 -0.34463,1.16183 0.33803,2.13996 1.07685,2.99807 1.63289,0.80709 3.57629,0.9988 4.99722,2.18238 1.01354,0.82943 2.10745,1.5564 3.24156,2.2313 0.85058,1.02695 1.79255,2.01621 2.17131,3.31342 1.52059,1.77091 1.70006,4.14767 2.5622,6.22177 0.016,3.07924 -0.63091,6.39481 -2.6701,8.86291 -1.45892,1.16182 -2.47852,2.72457 -3.93523,3.88696 -1.39837,0.80499 -2.89087,1.46663 -4.33493,2.1914 -0.94142,0.2115 -1.91311,0.31527 -2.84958,0.56237 -0.75974,3.77486 -1.27834,7.64163 -2.80333,11.22163 -0.50594,-1.46983 -0.44483,-3.04474 -0.88141,-4.52998 -0.6155,-2.19622 0.64743,-4.48216 -0.0644,-6.63806 -1.06694,-0.9202 -2.84627,-0.32271 -4.02993,-1.11243 -2.25279,-1.33973 -4.63661,-2.64438 -6.27061,-4.69405 -0.60834,-1.17828 -1.88613,-2.05868 -1.88613,-3.4722 -0.0105,-1.90367 -1.16108,-3.68623 -0.72176,-5.61057 z m 16.722,11.64484 c 1.63234,-0.38271 3.15292,-1.13581 4.5221,-2.05549 1.47324,-0.94678 2.02267,-2.7134 3.47609,-3.68198 1.36093,-1.56695 1.06639,-3.70743 1.62408,-5.56276 -0.22351,-1.29459 -0.48722,-2.57853 -0.62651,-3.88958 -0.66394,-1.03865 -1.68849,-1.86699 -1.97257,-3.11695 -0.9728,-1.34451 -2.45429,-2.27482 -3.644,-3.44037 -0.86544,-0.96271 -2.24289,-0.55702 -3.37974,-0.5942 0.11286,1.06199 0.20259,2.1601 -0.0732,3.20777 -0.13434,0.64359 -0.43548,1.27759 -0.33198,1.95197 0.22792,1.43317 -0.32977,2.8706 0.0644,4.28731 0.79443,2.96194 -0.0721,5.95199 -0.14754,8.93779 0.11286,1.32274 0.17672,2.65503 0.48888,3.95649 z m -12.37441,-5.61268 c 1.08125,0.74129 2.0023,1.65194 2.94592,2.54083 1.64005,1.09387 3.26083,2.25149 5.21303,2.7984 -0.17617,-1.34289 -0.34794,-2.72457 0.0958,-4.03934 1.08896,-2.97039 -0.24554,-6.07731 -0.47071,-9.08116 0.19875,-1.78575 0.009,-3.691 0.85774,-5.33602 0.11121,-1.23565 -0.44263,-2.42882 -0.8181,-3.5917 -1.28935,0.49647 -2.50329,1.1666 -3.57628,2.02843 -1.29596,0.93667 -3.2812,1.54413 -3.57133,3.29114 -0.1481,1.1475 -1.45011,1.84149 -1.41213,3.01553 0.0815,2.79095 -0.31766,5.70989 0.73607,8.37389 z"
       id="path4677" />
  </g>
</svg>
