<?xml version="1.0" encoding="UTF-8" standalone="no"?>
<!-- Created with Inkscape (http://www.inkscape.org/) -->

<svg
   xmlns:dc="http://purl.org/dc/elements/1.1/"
   xmlns:cc="http://creativecommons.org/ns#"
   xmlns:rdf="http://www.w3.org/1999/02/22-rdf-syntax-ns#"
   xmlns:svg="http://www.w3.org/2000/svg"
   xmlns="http://www.w3.org/2000/svg"
   xmlns:sodipodi="http://sodipodi.sourceforge.net/DTD/sodipodi-0.dtd"
   xmlns:inkscape="http://www.inkscape.org/namespaces/inkscape"
   width="100"
   height="100"
   id="svg4776"
   version="1.1"
   inkscape:version="0.48.5 r10040"
   sodipodi:docname="mana-w.svg">
  <defs
     id="defs4778" />
  <sodipodi:namedview
     id="base"
     pagecolor="#ffffff"
     bordercolor="#666666"
     borderopacity="1.0"
     inkscape:pageopacity="0.0"
     inkscape:pageshadow="2"
     inkscape:zoom="3.959798"
     inkscape:cx="15.231129"
     inkscape:cy="63.23211"
     inkscape:document-units="px"
     inkscape:current-layer="g4407"
     showgrid="false"
     inkscape:window-width="1920"
     inkscape:window-height="1137"
     inkscape:window-x="1912"
     inkscape:window-y="-8"
     inkscape:window-maximized="1"
     fit-margin-top="0"
     fit-margin-left="0"
     fit-margin-right="0"
     fit-margin-bottom="0"
     gridtolerance="10"
     objecttolerance="20"
     guidetolerance="10000">
    <sodipodi:guide
       position="0,0"
       orientation="0,100"
       id="guide4839" />
    <sodipodi:guide
       position="100,0"
       orientation="-100,0"
       id="guide4841" />
    <sodipodi:guide
       position="100,100"
       orientation="0,-100"
       id="guide4843" />
    <sodipodi:guide
       position="0,100"
       orientation="100,0"
       id="guide4845" />
  </sodipodi:namedview>
  <metadata
     id="metadata4781">
    <rdf:RDF>
      <cc:Work
         rdf:about="">
        <dc:format>image/svg+xml</dc:format>
        <dc:type
           rdf:resource="http://purl.org/dc/dcmitype/StillImage" />
        <dc:title></dc:title>
      </cc:Work>
    </rdf:RDF>
  </metadata>
  <g
     inkscape:label="Layer 1"
     inkscape:groupmode="layer"
     id="layer1"
     transform="translate(-270,-119.50504)">
    <g
       transform="translate(795,119.50504)"
       id="g4407">
      <circle
         style="fill:#cac5c0;fill-opacity:1"
         sodipodi:ry="50"
         sodipodi:rx="50"
         sodipodi:cy="50"
         sodipodi:cx="-475"
         d="m -425,50 c 0,27.614237 -22.38576,50 -50,50 -27.61424,0 -50,-22.385763 -50,-50 0,-27.614237 22.38576,-50 50,-50 27.61424,0 50,22.385763 50,50 z"
         cx="-475"
         cy="50"
         r="50"
         id="circle4409" />
    </g>
    <path
       style="fill:#0d0f0f"
       inkscape:connector-curvature="0"
       d="m 367.691,176.56904 c -6.561,-3.699 -10.768,-5.551 -12.617,-5.551 -1.344,0 -2.395,1.032 -3.154,3.092 -0.758,2.063 -2.27,3.09 -4.541,3.09 -0.926,0 -2.818,-0.336 -5.678,-1.008 -1.598,2.44 -2.398,3.996 -2.398,4.668 0,0.926 0.689,2.016 2.064,3.281 1.375,1.262 2.535,1.891 3.482,1.891 0.602,0 1.416,-0.125 2.449,-0.379 1.031,-0.25 1.721,-0.377 2.064,-0.377 1.033,0 1.547,1.893 1.547,5.678 0,3.617 -0.84,9.168 -2.523,16.654 -2.188,-8.58 -4.5,-12.871 -6.938,-12.871 -0.338,0 -1.031,0.252 -2.082,0.76 -1.053,0.502 -1.83,0.754 -2.334,0.754 -2.438,0 -4.625,-2.227 -6.561,-6.688 -3.869,0.59 -5.805,2.567 -5.805,5.934 0,1.684 0.777,3.027 2.336,4.035 1.553,1.008 2.334,1.727 2.334,2.145 0,2.273 -3.324,5.764 -9.969,10.473 -3.531,2.523 -5.973,4.289 -7.316,5.297 1.174,-1.512 2.352,-3.487 3.533,-5.928 1.344,-2.775 2.018,-4.92 2.018,-6.436 0,-0.84 -0.967,-2.02 -2.902,-3.533 -1.936,-1.512 -2.9,-3.111 -2.9,-4.793 0,-1.428 0.502,-3.193 1.512,-5.299 -1.094,-1.262 -2.395,-1.895 -3.91,-1.895 -3.365,0 -5.045,1.096 -5.045,3.28 0,-1.514 0,-0.379 0,3.406 0.082,2.776 -2.02,4.164 -6.311,4.164 -3.279,0 -8.791,-0.759 -16.527,-2.271 8.748,-2.188 13.121,-4.711 13.121,-7.57 0,0.336 -0.168,-0.672 -0.504,-3.028 -0.338,-2.604 1.514,-4.961 5.551,-7.063 -0.758,-3.867 -2.773,-5.806 -6.057,-5.806 -0.504,0 -1.432,0.884 -2.775,2.647 -1.346,1.771 -2.607,2.652 -3.783,2.652 -2.02,0 -4.629,-2.186 -7.822,-6.563 -1.516,-2.184 -3.83,-5.424 -6.941,-9.715 1.934,1.012 3.869,2.02 5.805,3.031 2.523,1.176 4.541,1.766 6.057,1.766 1.178,0 2.334,-1.031 3.469,-3.092 1.135,-2.061 2.629,-3.092 4.479,-3.092 0.254,0 1.936,0.504 5.047,1.516 1.596,-2.439 2.398,-4.248 2.398,-5.426 0,-1.01 -0.611,-2.166 -1.83,-3.471 -1.221,-1.303 -2.334,-1.955 -3.344,-1.955 -0.422,0 -1.072,0.125 -1.957,0.379 -0.881,0.252 -1.533,0.379 -1.953,0.379 -1.516,0 -2.273,-1.893 -2.273,-5.678 0,-1.01 0.969,-6.77 2.904,-17.285 -0.086,1.26 0.461,3.617 1.639,7.064 1.43,4.207 3.111,6.309 5.049,6.309 0.334,0 1.008,-0.252 2.018,-0.758 1.008,-0.504 1.807,-0.754 2.396,-0.754 1.934,0 3.531,1.094 4.795,3.277 l 1.893,3.406 c 1.766,0 3.238,-0.629 4.414,-1.891 1.178,-1.262 1.768,-2.777 1.768,-4.543 0,-1.85 -0.777,-3.26 -2.334,-4.227 -1.559,-0.967 -2.336,-1.703 -2.336,-2.207 0,-1.768 2.777,-4.752 8.328,-8.958 4.457,-3.363 7.359,-5.34 8.707,-5.93 -3.617,4.879 -5.426,8.451 -5.426,10.724 0,1.178 0.713,2.441 2.145,3.785 1.766,1.598 2.775,2.734 3.027,3.406 0.84,1.938 0.756,4.586 -0.252,7.949 2.271,1.6 3.994,2.396 5.174,2.396 2.436,0 3.658,-1.264 3.658,-3.785 0,-0.252 -0.105,-1.051 -0.314,-2.396 -0.213,-1.344 -0.273,-2.102 -0.191,-2.271 0.336,-1.178 2.65,-1.768 6.939,-1.768 2.691,0 8.283,0.758 16.781,2.273 -1.852,0.504 -4.627,1.26 -8.326,2.27 -3.365,1.01 -5.049,2.145 -5.049,3.406 0,0.59 0.209,1.598 0.631,3.027 0.42,1.432 0.633,2.48 0.633,3.156 0,1.176 -0.758,2.27 -2.271,3.277 l -4.291,3.031 c 1.01,1.852 1.682,2.945 2.02,3.279 0.84,1.008 1.975,1.514 3.406,1.514 1.01,0 1.934,-0.883 2.775,-2.648 0.84,-1.768 2.188,-2.65 4.037,-2.65 2.27,0 4.838,2.104 7.697,6.311 1.593,2.36 4.075,5.933 7.44,10.727 z m -28.007,-7.316 c 0,-5.381 -1.979,-10.051 -5.932,-14.006 -3.953,-3.953 -8.621,-5.93 -14.004,-5.93 -5.469,0 -10.18,1.957 -14.131,5.869 -3.953,3.91 -5.973,8.6 -6.055,14.066 -0.086,5.383 1.912,10.03 5.992,13.938 4.08,3.912 8.811,5.869 14.193,5.869 5.719,0 10.492,-1.873 14.318,-5.615 3.83,-3.74 5.701,-8.47 5.619,-14.191 z m -1.893,0 c 0,5.131 -1.725,9.381 -5.174,12.74 -3.451,3.367 -7.74,5.049 -12.869,5.049 -4.963,0 -9.211,-1.723 -12.742,-5.174 -3.531,-3.445 -5.299,-7.652 -5.299,-12.615 0,-4.877 1.785,-9.064 5.359,-12.553 3.578,-3.49 7.803,-5.238 12.682,-5.238 4.877,0 9.104,1.766 12.68,5.301 3.574,3.533 5.363,7.695 5.363,12.49 z"
       id="path4411" />
  </g>
</svg>
